<?xml version="1.0" encoding="utf-8"?>
<svg version="1.1" xmlns:xlink="http://www.w3.org/1999/xlink" width="351px" height="223px" xmlns="http://www.w3.org/2000/svg">
  <g transform="matrix(1 0 0 1 -1534 -1135 )">
    <path d="M 1534 1135  L 1885 1135  L 1885 1358  L 1534 1358  L 1534 1135  " fill-rule="nonzero" fill="#cccccc" stroke="none" />
    <path d="M 1550 1151  L 1869 1151  L 1869 1342  L 1550 1342  L 1550 1151  " fill-rule="nonzero" fill="#ffffff" stroke="none" />
    <path d="M 1733.245 1201.9  C 1723.879 1201.9  1716.52 1194.541  1716.52 1185.175  C 1716.52 1175.809  1723.879 1168.45  1733.245 1168.45  C 1742.611 1168.45  1749.97 1175.809  1749.97 1185.175  C 1749.97 1194.541  1742.611 1201.9  1733.245 1201.9  " fill-rule="nonzero" fill="#cccccc" stroke="none" />
    <path d="M 1556 1337  L 1556 1238  L 1633 1193  L 1740.8 1268.38461538462  L 1802.4 1220  L 1864 1268.38461538462  L 1864 1337  L 1556 1337  " fill-rule="nonzero" fill="#169bd5" stroke="none" />
  </g>
</svg>