<?xml version="1.0" encoding="utf-8"?>
<svg version="1.1" xmlns:xlink="http://www.w3.org/1999/xlink" width="88px" height="44px" xmlns="http://www.w3.org/2000/svg">
  <g transform="matrix(1 0 0 1 -87 0 )">
    <path d="M 0 42.5  L 0 0.5  L 81 0.5  C 84.08 0.5  86.5 2.91999999999999  86.5 6  L 86.5 37  C 86.5 40.08  84.08 42.5  81 42.5  L 0 42.5  Z " fill-rule="nonzero" fill="#ffffff" stroke="none" transform="matrix(1 0 0 1 87 0 )" />
    <path d="M 0 0.5  L 81 0.5  C 84.08 0.5  86.5 2.91999999999999  86.5 6  L 86.5 37  C 86.5 40.08  84.08 42.5  81 42.5  L 0 42.5  " stroke-width="1" stroke="#428bca" fill="none" transform="matrix(1 0 0 1 87 0 )" />
  </g>
</svg>