<?xml version="1.0" encoding="utf-8"?>
<svg version="1.1" xmlns:xlink="http://www.w3.org/1999/xlink" width="10px" height="14px" preserveAspectRatio="xMidYMin meet" viewBox="18 884  8 14" xmlns="http://www.w3.org/2000/svg">
  <path d="M 55 794.5  L 25 794.5  A 5 5 0 0 0 20.5 799.5 L 20.5 892  A 1 1 0 0 0 21.5 893.5 A 1 1 0 0 0 22.5 892.5 L 22.5 891.5  A 2.5 2.5 0 0 1 25 889.5 L 27 889.5  " stroke-width="1" stroke="#ff3399" fill="none" />
  <path d="M 53 791.5  A 3 3 0 0 0 50 794.5 A 3 3 0 0 0 53 797.5 A 3 3 0 0 0 56 794.5 A 3 3 0 0 0 53 791.5 Z " fill-rule="nonzero" fill="#ff3399" stroke="none" />
</svg>