<?xml version="1.0" encoding="utf-8"?>
<svg version="1.1" xmlns:xlink="http://www.w3.org/1999/xlink" width="18px" height="18px" preserveAspectRatio="xMinYMid meet" viewBox="1542 401  18 16" xmlns="http://www.w3.org/2000/svg">
  <path d="M 1551.5 407  L 1551.5 463  A 5 5 0 0 0 1556 468.5 L 1631 468.5  A 3 3 0 0 1 1634 465.5 A 3 3 0 0 1 1637 468.5 L 1704 468.5  " stroke-width="1" stroke="#ff3399" fill="none" />
  <path d="M 1551.5 406  A 3 3 0 0 0 1548.5 409 A 3 3 0 0 0 1551.5 412 A 3 3 0 0 0 1554.5 409 A 3 3 0 0 0 1551.5 406 Z " fill-rule="nonzero" fill="#ff3399" stroke="none" />
</svg>