<?xml version="1.0" encoding="utf-8"?>
<svg version="1.1" xmlns:xlink="http://www.w3.org/1999/xlink" width="437px" height="10px" preserveAspectRatio="xMinYMid meet" viewBox="-707 377  437 8" xmlns="http://www.w3.org/2000/svg">
  <path d="M -701.5 390  L -701.5 386  A 5 5 0 0 1 -696.5 381.5 L -275.5 381.5  A 0.5 0.5 0 0 0 -274.5 381 A 0.5 0.5 0 0 0 -275 380.5 L -627 380.5  A 5 5 0 0 0 -631.5 385.5 L -631.5 397  " stroke-width="1" stroke="#ff3399" fill="none" />
  <path d="M -701.5 385  A 3 3 0 0 0 -704.5 388 A 3 3 0 0 0 -701.5 391 A 3 3 0 0 0 -698.5 388 A 3 3 0 0 0 -701.5 385 Z " fill-rule="nonzero" fill="#ff3399" stroke="none" />
</svg>