<?xml version="1.0" encoding="utf-8"?>
<svg version="1.1" xmlns:xlink="http://www.w3.org/1999/xlink" width="22px" height="15px" xmlns="http://www.w3.org/2000/svg">
  <g transform="matrix(1 0 0 1 -7 -91 )">
    <path d="M 16.3342633928571 11.7513020833333  C 17.9752604166667 10.6966145833333  19.3400297619048 9.27951388888889  20.4285714285714 7.5  C 19.1845238095238 5.45138888888889  17.6253720238095 3.91927083333333  15.7511160714286 2.90364583333333  C 16.2503720238095 3.80642361111111  16.5 4.78298611111111  16.5 5.83333333333333  C 16.5 7.43923611111111  15.9618675595238 8.81293402777778  14.8856026785714 9.95442708333333  C 13.809337797619 11.0959201388889  12.5141369047619 11.6666666666667  11 11.6666666666667  C 9.4858630952381 11.6666666666667  8.19066220238095 11.0959201388889  7.11439732142857 9.95442708333333  C 6.03813244047619 8.81293402777778  5.5 7.43923611111111  5.5 5.83333333333333  C 5.5 4.78298611111111  5.74962797619048 3.80642361111111  6.24888392857143 2.90364583333333  C 4.37462797619048 3.91927083333333  2.81547619047619 5.45138888888889  1.57142857142857 7.5  C 2.65997023809524 9.27951388888889  4.02473958333333 10.6966145833333  5.66573660714286 11.7513020833333  C 7.30673363095238 12.8059895833333  9.08482142857143 13.3333333333333  11 13.3333333333333  C 12.9151785714286 13.3333333333333  14.6932663690476 12.8059895833333  16.3342633928571 11.7513020833333  Z M 11.4174107142857 2.94270833333333  C 11.531994047619 2.82118055555556  11.5892857142857 2.67361111111111  11.5892857142857 2.5  C 11.5892857142857 2.32638888888889  11.531994047619 2.17881944444444  11.4174107142857 2.05729166666667  C 11.3028273809524 1.93576388888889  11.1636904761905 1.875  11 1.875  C 9.97693452380952 1.875  9.0991443452381 2.26345486111111  8.36662946428572 3.04036458333333  C 7.63411458333333 3.81727430555556  7.26785714285714 4.74826388888889  7.26785714285714 5.83333333333333  C 7.26785714285714 6.00694444444444  7.32514880952381 6.15451388888889  7.43973214285714 6.27604166666667  C 7.55431547619048 6.39756944444444  7.69345238095238 6.45833333333333  7.85714285714286 6.45833333333333  C 8.02083333333333 6.45833333333333  8.15997023809524 6.39756944444444  8.27455357142857 6.27604166666667  C 8.38913690476191 6.15451388888889  8.44642857142857 6.00694444444444  8.44642857142857 5.83333333333333  C 8.44642857142857 5.08680555555556  8.69605654761905 4.44878472222222  9.1953125 3.91927083333333  C 9.69456845238095 3.38975694444444  10.296130952381 3.125  11 3.125  C 11.1636904761905 3.125  11.3028273809524 3.06423611111111  11.4174107142857 2.94270833333333  Z M 21.7544642857143 6.6015625  C 21.9181547619048 6.90538194444444  22 7.20486111111111  22 7.5  C 22 7.79513888888889  21.9181547619048 8.09461805555556  21.7544642857143 8.3984375  C 20.608630952381 10.3949652777778  19.0678943452381 11.9943576388889  17.1322544642857 13.1966145833333  C 15.1966145833333 14.3988715277778  13.1525297619048 15  11 15  C 8.84747023809524 15  6.80338541666667 14.3967013888889  4.86774553571429 13.1901041666667  C 2.93210565476191 11.9835069444444  1.39136904761905 10.3862847222222  0.245535714285714 8.3984375  C 0.0818452380952381 8.09461805555556  0 7.79513888888889  0 7.5  C 0 7.20486111111111  0.0818452380952381 6.90538194444444  0.245535714285714 6.6015625  C 1.39136904761905 4.61371527777778  2.93210565476191 3.01649305555555  4.86774553571429 1.80989583333333  C 6.80338541666667 0.60329861111111  8.84747023809524 0  11 0  C 13.1525297619048 0  15.1966145833333 0.60329861111111  17.1322544642857 1.80989583333333  C 19.0678943452381 3.01649305555555  20.608630952381 4.61371527777778  21.7544642857143 6.6015625  Z " fill-rule="nonzero" fill="#027db4" stroke="none" transform="matrix(1 0 0 1 7 91 )" />
  </g>
</svg>