<?xml version="1.0" encoding="utf-8"?>
<svg version="1.1" xmlns:xlink="http://www.w3.org/1999/xlink" width="26px" height="20px" xmlns="http://www.w3.org/2000/svg">
  <g transform="matrix(1 0 0 1 -13 -208 )">
    <path d="M 10.97509765625 15.33203125  C 11.24169921875 14.9978298611111  11.375 14.5920138888889  11.375 14.1145833333333  C 11.375 13.6458333333333  11.34326171875 13.2096354166667  11.27978515625 12.8059895833333  C 11.21630859375 12.40234375  11.1126302083333 12.01171875  10.96875 11.6341145833333  C 10.8248697916667 11.2565104166667  10.6090494791667 10.9592013888889  10.3212890625 10.7421875  C 10.0335286458333 10.5251736111111  9.69075520833333 10.4166666666667  9.29296875 10.4166666666667  C 8.75130208333333 10.9722222222222  8.09114583333333 11.25  7.3125 11.25  C 6.53385416666667 11.25  5.87369791666667 10.9722222222222  5.33203125 10.4166666666667  C 4.93424479166667 10.4166666666667  4.59147135416667 10.5251736111111  4.3037109375 10.7421875  C 4.01595052083333 10.9592013888889  3.80013020833333 11.2565104166667  3.65625 11.6341145833333  C 3.51236979166667 12.01171875  3.40869140625 12.40234375  3.34521484375 12.8059895833333  C 3.28173828125 13.2096354166667  3.25 13.6458333333333  3.25 14.1145833333333  C 3.25 14.5920138888889  3.38330078125 14.9978298611111  3.64990234375 15.33203125  C 3.91650390625 15.6662326388889  4.23600260416667 15.8333333333333  4.6083984375 15.8333333333333  L 10.0166015625 15.8333333333333  C 10.3889973958333 15.8333333333333  10.70849609375 15.6662326388889  10.97509765625 15.33203125  Z M 9.0390625 10.1041666666667  C 9.51302083333333 9.61805555555556  9.75 9.02777777777778  9.75 8.33333333333333  C 9.75 7.63888888888889  9.51302083333333 7.04861111111111  9.0390625 6.5625  C 8.56510416666667 6.07638888888889  7.98958333333333 5.83333333333333  7.3125 5.83333333333333  C 6.63541666666667 5.83333333333333  6.05989583333333 6.07638888888889  5.5859375 6.5625  C 5.11197916666667 7.04861111111111  4.875 7.63888888888889  4.875 8.33333333333333  C 4.875 9.02777777777778  5.11197916666667 9.61805555555556  5.5859375 10.1041666666667  C 6.05989583333333 10.5902777777778  6.63541666666667 10.8333333333333  7.3125 10.8333333333333  C 7.98958333333333 10.8333333333333  8.56510416666667 10.5902777777778  9.0390625 10.1041666666667  Z M 22.6357421875 14.8828125  C 22.7119140625 14.8046875  22.75 14.7048611111111  22.75 14.5833333333333  L 22.75 13.75  C 22.75 13.6284722222222  22.7119140625 13.5286458333333  22.6357421875 13.4505208333333  C 22.5595703125 13.3723958333333  22.4622395833333 13.3333333333333  22.34375 13.3333333333333  L 13.40625 13.3333333333333  C 13.2877604166667 13.3333333333333  13.1904296875 13.3723958333333  13.1142578125 13.4505208333333  C 13.0380859375 13.5286458333333  13 13.6284722222222  13 13.75  L 13 14.5833333333333  C 13 14.7048611111111  13.0380859375 14.8046875  13.1142578125 14.8828125  C 13.1904296875 14.9609375  13.2877604166667 15  13.40625 15  L 22.34375 15  C 22.4622395833333 15  22.5595703125 14.9609375  22.6357421875 14.8828125  Z M 17.7607421875 11.5494791666667  C 17.8369140625 11.4713541666667  17.875 11.3715277777778  17.875 11.25  L 17.875 10.4166666666667  C 17.875 10.2951388888889  17.8369140625 10.1953125  17.7607421875 10.1171875  C 17.6845703125 10.0390625  17.5872395833333 10  17.46875 10  L 13.40625 10  C 13.2877604166667 10  13.1904296875 10.0390625  13.1142578125 10.1171875  C 13.0380859375 10.1953125  13 10.2951388888889  13 10.4166666666667  L 13 11.25  C 13 11.3715277777778  13.0380859375 11.4713541666667  13.1142578125 11.5494791666667  C 13.1904296875 11.6276041666667  13.2877604166667 11.6666666666667  13.40625 11.6666666666667  L 17.46875 11.6666666666667  C 17.5872395833333 11.6666666666667  17.6845703125 11.6276041666667  17.7607421875 11.5494791666667  Z M 22.6357421875 11.5494791666667  C 22.7119140625 11.4713541666667  22.75 11.3715277777778  22.75 11.25  L 22.75 10.4166666666667  C 22.75 10.2951388888889  22.7119140625 10.1953125  22.6357421875 10.1171875  C 22.5595703125 10.0390625  22.4622395833333 10  22.34375 10  L 19.90625 10  C 19.7877604166667 10  19.6904296875 10.0390625  19.6142578125 10.1171875  C 19.5380859375 10.1953125  19.5 10.2951388888889  19.5 10.4166666666667  L 19.5 11.25  C 19.5 11.3715277777778  19.5380859375 11.4713541666667  19.6142578125 11.5494791666667  C 19.6904296875 11.6276041666667  19.7877604166667 11.6666666666667  19.90625 11.6666666666667  L 22.34375 11.6666666666667  C 22.4622395833333 11.6666666666667  22.5595703125 11.6276041666667  22.6357421875 11.5494791666667  Z M 22.6357421875 8.21614583333333  C 22.7119140625 8.13802083333333  22.75 8.03819444444444  22.75 7.91666666666667  L 22.75 7.08333333333333  C 22.75 6.96180555555556  22.7119140625 6.86197916666667  22.6357421875 6.78385416666667  C 22.5595703125 6.70572916666667  22.4622395833333 6.66666666666667  22.34375 6.66666666666667  L 13.40625 6.66666666666667  C 13.2877604166667 6.66666666666667  13.1904296875 6.70572916666667  13.1142578125 6.78385416666667  C 13.0380859375 6.86197916666667  13 6.96180555555556  13 7.08333333333333  L 13 7.91666666666667  C 13 8.03819444444444  13.0380859375 8.13802083333333  13.1142578125 8.21614583333333  C 13.1904296875 8.29427083333333  13.2877604166667 8.33333333333333  13.40625 8.33333333333333  L 22.34375 8.33333333333333  C 22.4622395833333 8.33333333333333  22.5595703125 8.29427083333333  22.6357421875 8.21614583333333  Z M 1.625 2.08333333333333  L 1.625 3.33333333333333  L 24.375 3.33333333333333  L 24.375 2.08333333333333  C 24.375 1.96180555555555  24.3369140625 1.86197916666667  24.2607421875 1.78385416666667  C 24.1845703125 1.70572916666667  24.0872395833333 1.66666666666667  23.96875 2  L 2.03125 2  C 1.91276041666667 1.66666666666667  1.8154296875 1.70572916666667  1.7392578125 1.78385416666667  C 1.6630859375 1.86197916666667  1.625 1.96180555555555  1.625 2.08333333333333  Z M 25.4033203125 0.611979166666667  C 25.8011067708333 1.01996527777778  26 1.51041666666667  26 2.08333333333333  L 26 17.9166666666667  C 26 18.4895833333333  25.8011067708333 18.9800347222222  25.4033203125 19.3880208333333  C 25.0055338541667 19.7960069444444  24.52734375 20  23.96875 20  L 2.03125 20  C 1.47265625 20  0.994466145833333 19.7960069444444  0.5966796875 19.3880208333333  C 0.198893229166667 18.9800347222222  0 18.4895833333333  0 17.9166666666667  L 0 2.08333333333333  C 0 1.51041666666667  0.198893229166667 1.01996527777778  0.5966796875 0.611979166666667  C 0.994466145833333 0.203993055555554  1.47265625 0  2.03125 0  L 23.96875 0  C 24.52734375 0  25.0055338541667 0.203993055555554  25.4033203125 0.611979166666667  Z " fill-rule="nonzero" fill="#000000" stroke="none" transform="matrix(1 0 0 1 13 208 )" />
  </g>
</svg>