<?xml version="1.0" encoding="utf-8"?>
<svg version="1.1" xmlns:xlink="http://www.w3.org/1999/xlink" width="8px" height="14px" xmlns="http://www.w3.org/2000/svg">
  <g transform="matrix(1 0 0 1 -787 -531 )">
    <path d="M 7.83333333333333 1  L 7.33333333333333 1  C 7.33333333333333 2.359375  7.1484375 3.56119791666667  6.77864583333333 4.60546875  C 6.40885416666667 5.64973958333333  5.94618055555556 6.44791666666667  5.390625 7  C 5.94618055555556 7.55208333333333  6.40885416666667 8.35026041666667  6.77864583333333 9.39453125  C 7.1484375 10.4388020833333  7.33333333333333 11.640625  7.33333333333333 13  L 7.83333333333333 13  C 7.88194444444445 13  7.921875 13.0234375  7.953125 13.0703125  C 7.984375 13.1171875  8 13.1770833333333  8 13.25  L 8 13.75  C 8 13.8229166666667  7.984375 13.8828125  7.953125 13.9296875  C 7.921875 13.9765625  7.88194444444445 14  7.83333333333333 14  L 0.166666666666667 14  C 0.118055555555556 14  0.078125 13.9765625  0.046875 13.9296875  C 0.015625 13.8828125  0 13.8229166666667  0 13.75  L 0 13.25  C 0 13.1770833333333  0.015625 13.1171875  0.046875 13.0703125  C 0.078125 13.0234375  0.118055555555556 13  0.166666666666667 13  L 0.666666666666667 13  C 0.666666666666667 11.640625  0.8515625 10.4388020833333  1.22135416666667 9.39453125  C 1.59114583333333 8.35026041666667  2.05381944444444 7.55208333333333  2.609375 7  C 2.05381944444444 6.44791666666667  1.59114583333333 5.64973958333333  1.22135416666667 4.60546875  C 0.8515625 3.56119791666667  0.666666666666667 2.359375  0.666666666666667 1  L 0.166666666666667 1  C 0.118055555555556 1  0.078125 0.9765625  0.046875 0.9296875  C 0.015625 0.8828125  0 0.822916666666666  0 0.75  L 0 0.250000000000001  C 0 0.177083333333332  0.015625 0.1171875  0.046875 0.0703124999999996  C 0.078125 0.0234374999999993  0.118055555555556 0  0.166666666666667 0  L 7.83333333333333 0  C 7.88194444444445 0  7.921875 0.0234374999999993  7.953125 0.0703124999999996  C 7.984375 0.1171875  8 0.177083333333332  8 0.250000000000001  L 8 0.75  C 8 0.822916666666666  7.984375 0.8828125  7.953125 0.9296875  C 7.921875 0.9765625  7.88194444444445 1  7.83333333333333 1  Z M 6.22395833333333 4  C 6.51909722222222 3.07291666666667  6.66666666666667 2.07291666666667  6.66666666666667 1  L 1.33333333333333 1  C 1.33333333333333 2.07291666666667  1.48090277777778 3.07291666666667  1.77604166666667 4  L 6.22395833333333 4  Z M 1.63020833333333 10.5  L 6.36979166666667 10.5  C 6.18229166666667 9.765625  5.9296875 9.13671875  5.61197916666667 8.61328125  C 5.29427083333333 8.08984375  4.95659722222222 7.71875  4.59895833333333 7.5  L 3.40104166666667 7.5  C 3.04340277777778 7.71875  2.70572916666667 8.08984375  2.38802083333333 8.61328125  C 2.0703125 9.13671875  1.81770833333333 9.765625  1.63020833333333 10.5  Z " fill-rule="nonzero" fill="#ffffff" stroke="none" transform="matrix(1 0 0 1 787 531 )" />
  </g>
</svg>