<?xml version="1.0" encoding="utf-8"?>
<svg version="1.1" xmlns:xlink="http://www.w3.org/1999/xlink" width="10px" height="302px" preserveAspectRatio="xMidYMin meet" viewBox="1724.66666666667 282  8 302" xmlns="http://www.w3.org/2000/svg">
  <path d="M 1196.66512916106 581.518415909612  A 3 3 0 0 1 1199.5 579.5 L 1723.66666666667 579.5  A 5 5 0 0 0 1729.16666666667 574.5 L 1729.16666666667 292  A 5 5 0 0 1 1734.16666666667 287.5 L 1817 287.5  " stroke-width="1" stroke="#ff3399" fill="none" />
  <path d="M 1197.8790930824 576.975587045576  A 3 3 0 0 0 1194.8790930824 579.975587045576 A 3 3 0 0 0 1197.8790930824 582.975587045576 A 3 3 0 0 0 1200.8790930824 579.975587045576 A 3 3 0 0 0 1197.8790930824 576.975587045576 Z " fill-rule="nonzero" fill="#ff3399" stroke="none" />
</svg>