<?xml version="1.0" encoding="utf-8"?>
<svg version="1.1" xmlns:xlink="http://www.w3.org/1999/xlink" width="34px" height="31px" xmlns="http://www.w3.org/2000/svg">
  <defs>
    <mask fill="white" id="clip121">
      <path d="M 13.5243682108225 30.625941957226  C 19.3690232465155 26.7463361446291  26.3592288254127 24.4435035055373  33.8822666194613 24.3276678173993  L 33.8822162534999 0.000108605159091724  C 21.5404640606181 0.0228702010093144  10.0414057250814 3.62238844914067  0.374406784015024 9.81332688976403  L 13.5243682108225 30.625941957226  Z " fill-rule="evenodd" />
    </mask>
  </defs>
  <g transform="matrix(1 0 0 1 -1683 -450 )">
    <path d="M 13.5243682108225 30.625941957226  C 19.3690232465155 26.7463361446291  26.3592288254127 24.4435035055373  33.8822666194613 24.3276678173993  L 33.8822162534999 0.000108605159091724  C 21.5404640606181 0.0228702010093144  10.0414057250814 3.62238844914067  0.374406784015024 9.81332688976403  L 13.5243682108225 30.625941957226  Z " fill-rule="nonzero" fill="#f04864" stroke="none" transform="matrix(1 0 0 1 1683 450 )" />
    <path d="M 13.5243682108225 30.625941957226  C 19.3690232465155 26.7463361446291  26.3592288254127 24.4435035055373  33.8822666194613 24.3276678173993  L 33.8822162534999 0.000108605159091724  C 21.5404640606181 0.0228702010093144  10.0414057250814 3.62238844914067  0.374406784015024 9.81332688976403  L 13.5243682108225 30.625941957226  Z " stroke-width="2" stroke="#ffffff" fill="none" transform="matrix(1 0 0 1 1683 450 )" mask="url(#clip121)" />
  </g>
</svg>