<?xml version="1.0" encoding="utf-8"?>
<svg version="1.1" xmlns:xlink="http://www.w3.org/1999/xlink" width="43px" height="48px" xmlns="http://www.w3.org/2000/svg">
  <defs>
    <mask fill="white" id="clip1242">
      <path d="M 25.338246424335 47.678258226859  C 27.0076788767025 36.4842852028783  33.5577611270405 26.8683860228709  42.7734102975005 21.0284723795934  L 29.1026766970336 0.0390286348463771  C 13.8831635973604 9.59935011185713  3.04078748629014 25.4013630806497  0.23039413937704 43.8185538844202  L 25.338246424335 47.678258226859  Z " fill-rule="evenodd" />
    </mask>
  </defs>
  <g transform="matrix(1 0 0 1 -1655 -459 )">
    <path d="M 25.338246424335 47.678258226859  C 27.0076788767025 36.4842852028783  33.5577611270405 26.8683860228709  42.7734102975005 21.0284723795934  L 29.1026766970336 0.0390286348463771  C 13.8831635973604 9.59935011185713  3.04078748629014 25.4013630806497  0.23039413937704 43.8185538844202  L 25.338246424335 47.678258226859  Z " fill-rule="nonzero" fill="#facc14" stroke="none" transform="matrix(1 0 0 1 1655 459 )" />
    <path d="M 25.338246424335 47.678258226859  C 27.0076788767025 36.4842852028783  33.5577611270405 26.8683860228709  42.7734102975005 21.0284723795934  L 29.1026766970336 0.0390286348463771  C 13.8831635973604 9.59935011185713  3.04078748629014 25.4013630806497  0.23039413937704 43.8185538844202  L 25.338246424335 47.678258226859  Z " stroke-width="2" stroke="#ffffff" fill="none" transform="matrix(1 0 0 1 1655 459 )" mask="url(#clip1242)" />
  </g>
</svg>