<?xml version="1.0" encoding="utf-8"?>
<svg version="1.1" xmlns:xlink="http://www.w3.org/1999/xlink" width="64px" height="116px" xmlns="http://www.w3.org/2000/svg">
  <defs>
    <mask fill="white" id="clip890">
      <path d="M 39.5725190839695 62.8333333333333  C 39.5725190839695 76.4746167586636  32.3419189989337 88.4451344748231  21.4655558964582 95.198325016447  L 34.8653700650369 115.675714817705  C 52.3941866148571 104.491418013165  64 85.0032460576493  64 62.8333333333333  C 64 28.1314415542332  35.5649551018017 0  0.488549618320621 0  C 0.35281635851702 0  0.217182547492514 0.000421244634864784  0.0817499684986525 0.00126255463470951  L 0.0817472189891469 24.6600723653429  C 0.379377967195919 24.6533695408671  0.677840855932819 24.65  0.977099236641212 24.65  C 22.2927610304487 24.65  39.5725190839695 41.7452606368034  39.5725190839695 62.8333333333333  Z " fill-rule="evenodd" />
    </mask>
  </defs>
  <g transform="matrix(1 0 0 1 -1716 -450 )">
    <path d="M 39.5725190839695 62.8333333333333  C 39.5725190839695 76.4746167586636  32.3419189989337 88.4451344748231  21.4655558964582 95.198325016447  L 34.8653700650369 115.675714817705  C 52.3941866148571 104.491418013165  64 85.0032460576493  64 62.8333333333333  C 64 28.1314415542332  35.5649551018017 0  0.488549618320621 0  C 0.35281635851702 0  0.217182547492514 0.000421244634864784  0.0817499684986525 0.00126255463470951  L 0.0817472189891469 24.6600723653429  C 0.379377967195919 24.6533695408671  0.677840855932819 24.65  0.977099236641212 24.65  C 22.2927610304487 24.65  39.5725190839695 41.7452606368034  39.5725190839695 62.8333333333333  Z " fill-rule="nonzero" fill="#1890ff" stroke="none" transform="matrix(1 0 0 1 1716 450 )" />
    <path d="M 39.5725190839695 62.8333333333333  C 39.5725190839695 76.4746167586636  32.3419189989337 88.4451344748231  21.4655558964582 95.198325016447  L 34.8653700650369 115.675714817705  C 52.3941866148571 104.491418013165  64 85.0032460576493  64 62.8333333333333  C 64 28.1314415542332  35.5649551018017 0  0.488549618320621 0  C 0.35281635851702 0  0.217182547492514 0.000421244634864784  0.0817499684986525 0.00126255463470951  L 0.0817472189891469 24.6600723653429  C 0.379377967195919 24.6533695408671  0.677840855932819 24.65  0.977099236641212 24.65  C 22.2927610304487 24.65  39.5725190839695 41.7452606368034  39.5725190839695 62.8333333333333  Z " stroke-width="2" stroke="#ffffff" fill="none" transform="matrix(1 0 0 1 1716 450 )" mask="url(#clip890)" />
  </g>
</svg>