<?xml version="1.0" encoding="utf-8"?>
<svg version="1.1" xmlns:xlink="http://www.w3.org/1999/xlink" width="39px" height="59px" xmlns="http://www.w3.org/2000/svg">
  <defs>
    <mask fill="white" id="clip769">
      <path d="M 23.0583338830352 58.8995015976661  L 38.8568778252814 39.6181696514948  C 30.4159665352555 32.6106694238664  25.037037037037 22.0141341646014  25.037037037037 10.155737704918  C 25.037037037037 8.02701943346982  25.2103696547295 5.93896384501543  25.5436324415146 3.90503285758831  L 0.788125995054776 0.151530071807351  C 0.269459109566322 3.40949215191895  0 6.75100826806217  0 10.155737704918  C 0 29.8175139562774  8.98613954140709 47.3712014452534  23.0583338830352 58.8995015976661  Z " fill-rule="evenodd" />
    </mask>
  </defs>
  <g transform="matrix(1 0 0 1 -1654 -502 )">
    <path d="M 23.0583338830352 58.8995015976661  L 38.8568778252814 39.6181696514948  C 30.4159665352555 32.6106694238664  25.037037037037 22.0141341646014  25.037037037037 10.155737704918  C 25.037037037037 8.02701943346982  25.2103696547295 5.93896384501543  25.5436324415146 3.90503285758831  L 0.788125995054776 0.151530071807351  C 0.269459109566322 3.40949215191895  0 6.75100826806217  0 10.155737704918  C 0 29.8175139562774  8.98613954140709 47.3712014452534  23.0583338830352 58.8995015976661  Z " fill-rule="nonzero" fill="#2fc25b" stroke="none" transform="matrix(1 0 0 1 1654 502 )" />
    <path d="M 23.0583338830352 58.8995015976661  L 38.8568778252814 39.6181696514948  C 30.4159665352555 32.6106694238664  25.037037037037 22.0141341646014  25.037037037037 10.155737704918  C 25.037037037037 8.02701943346982  25.2103696547295 5.93896384501543  25.5436324415146 3.90503285758831  L 0.788125995054776 0.151530071807351  C 0.269459109566322 3.40949215191895  0 6.75100826806217  0 10.155737704918  C 0 29.8175139562774  8.98613954140709 47.3712014452534  23.0583338830352 58.8995015976661  Z " stroke-width="2" stroke="#ffffff" fill="none" transform="matrix(1 0 0 1 1654 502 )" mask="url(#clip769)" />
  </g>
</svg>