<?xml version="1.0" encoding="utf-8"?>
<svg version="1.1" xmlns:xlink="http://www.w3.org/1999/xlink" width="75px" height="34px" xmlns="http://www.w3.org/2000/svg">
  <defs>
    <mask fill="white" id="clip590">
      <path d="M 41.1290322580645 9.22857142857144  C 31.6814851472163 9.22857142857144  23.0344363166239 5.78817432819415  16.3634155325889 0.0873865223600485  L 0.412889894827491 19.3981667013663  C 11.3179409045901 28.5155745038235  25.3435036497647 34  40.6451612903226 34  C 53.2043872006066 34  64.9039431440975 30.305293672723  74.7239889365499 23.9396071076827  L 61.4559394119143 3.35970601538085  C 55.5680657249959 7.07787231330258  48.5987571641468 9.22857142857144  41.1290322580645 9.22857142857144  Z " fill-rule="evenodd" />
    </mask>
  </defs>
  <g transform="matrix(1 0 0 1 -1676 -541 )">
    <path d="M 41.1290322580645 9.22857142857144  C 31.6814851472163 9.22857142857144  23.0344363166239 5.78817432819415  16.3634155325889 0.0873865223600485  L 0.412889894827491 19.3981667013663  C 11.3179409045901 28.5155745038235  25.3435036497647 34  40.6451612903226 34  C 53.2043872006066 34  64.9039431440975 30.305293672723  74.7239889365499 23.9396071076827  L 61.4559394119143 3.35970601538085  C 55.5680657249959 7.07787231330258  48.5987571641468 9.22857142857144  41.1290322580645 9.22857142857144  Z " fill-rule="nonzero" fill="#13c2c2" stroke="none" transform="matrix(1 0 0 1 1676 541 )" />
    <path d="M 41.1290322580645 9.22857142857144  C 31.6814851472163 9.22857142857144  23.0344363166239 5.78817432819415  16.3634155325889 0.0873865223600485  L 0.412889894827491 19.3981667013663  C 11.3179409045901 28.5155745038235  25.3435036497647 34  40.6451612903226 34  C 53.2043872006066 34  64.9039431440975 30.305293672723  74.7239889365499 23.9396071076827  L 61.4559394119143 3.35970601538085  C 55.5680657249959 7.07787231330258  48.5987571641468 9.22857142857144  41.1290322580645 9.22857142857144  Z " stroke-width="2" stroke="#ffffff" fill="none" transform="matrix(1 0 0 1 1676 541 )" mask="url(#clip590)" />
  </g>
</svg>