<?xml version="1.0" encoding="utf-8"?>
<svg version="1.1" xmlns:xlink="http://www.w3.org/1999/xlink" width="10px" height="82px" preserveAspectRatio="xMidYMin meet" viewBox="1696 503  8 82" xmlns="http://www.w3.org/2000/svg">
  <path d="M 1715 508.5  L 1705 508.5  A 5 5 0 0 0 1700.5 513.5 L 1700.5 575  A 5 5 0 0 0 1705.5 580.5 L 1946 580.5  A 5 5 0 0 0 1951.5 575.5 L 1951.5 552  " stroke-width="1" stroke="#ff3399" fill="none" />
  <path d="M 1713 505.5  A 3 3 0 0 0 1710 508.5 A 3 3 0 0 0 1713 511.5 A 3 3 0 0 0 1716 508.5 A 3 3 0 0 0 1713 505.5 Z " fill-rule="nonzero" fill="#ff3399" stroke="none" />
</svg>