<?xml version="1.0" encoding="utf-8"?>
<svg version="1.1" xmlns:xlink="http://www.w3.org/1999/xlink" width="10px" height="81px" preserveAspectRatio="xMidYMin meet" viewBox="1266 344  8 81" xmlns="http://www.w3.org/2000/svg">
  <path d="M 1280 349.5  L 1275 349.5  A 5 5 0 0 0 1270.5 354.5 L 1270.5 415  A 5 5 0 0 0 1275.5 420.5 L 1511 420.5  A 5 5 0 0 0 1516.5 415.5 L 1516.5 393  " stroke-width="1" stroke="#ff3399" fill="none" />
  <path d="M 1278 346.5  A 3 3 0 0 0 1275 349.5 A 3 3 0 0 0 1278 352.5 A 3 3 0 0 0 1281 349.5 A 3 3 0 0 0 1278 346.5 Z " fill-rule="nonzero" fill="#ff3399" stroke="none" />
</svg>