<?xml version="1.0" encoding="utf-8"?>
<svg version="1.1" xmlns:xlink="http://www.w3.org/1999/xlink" width="10px" height="20px" preserveAspectRatio="xMidYMin meet" viewBox="1583 715  8 20" xmlns="http://www.w3.org/2000/svg">
  <path d="M 1489 728.5  L 1526 728.5  A 4 4 0 0 0 1530.5 724.5 A 4 4 0 0 1 1534.5 720.5 L 1582 720.5  A 5 5 0 0 1 1587.5 725.5 L 1587.5 735  " stroke-width="1" stroke="#ff3399" fill="none" />
  <path d="M 1491 725.5  A 3 3 0 0 0 1488 728.5 A 3 3 0 0 0 1491 731.5 A 3 3 0 0 0 1494 728.5 A 3 3 0 0 0 1491 725.5 Z " fill-rule="nonzero" fill="#ff3399" stroke="none" />
</svg>