<?xml version="1.0" encoding="utf-8"?>
<svg version="1.1" xmlns:xlink="http://www.w3.org/1999/xlink" width="18px" height="18px" preserveAspectRatio="xMinYMid meet" viewBox="1416 451  18 16" xmlns="http://www.w3.org/2000/svg">
  <path d="M 1423 459.5  L 1625.5 459.5  A 4.5 4.5 0 0 0 1630.5 455 A 4.5 4.5 0 0 1 1635 450.5 L 1684 450.5  A 5 5 0 0 1 1689.5 455.5 L 1689.5 464  " stroke-width="1" stroke="#027db4" fill="none" />
  <path d="M 1425 456.5  A 3 3 0 0 0 1422 459.5 A 3 3 0 0 0 1425 462.5 A 3 3 0 0 0 1428 459.5 A 3 3 0 0 0 1425 456.5 Z " fill-rule="nonzero" fill="#027db4" stroke="none" />
</svg>