<?xml version="1.0" encoding="utf-8"?>
<svg version="1.1" xmlns:xlink="http://www.w3.org/1999/xlink" width="8px" height="10px" preserveAspectRatio="xMidYMin meet" viewBox="254 508  6 10" xmlns="http://www.w3.org/2000/svg">
  <path d="M 258.5 343  L 258.5 377  A 3 3 0 0 1 261.5 380 A 3 3 0 0 1 258.5 383 L 258.5 511.5  A 1.5 1.5 0 0 0 260 513.5 L 261 513.5  " stroke-width="1" stroke="#ff3399" fill="none" />
  <path d="M 258.5 342  A 3 3 0 0 0 255.5 345 A 3 3 0 0 0 258.5 348 A 3 3 0 0 0 261.5 345 A 3 3 0 0 0 258.5 342 Z " fill-rule="nonzero" fill="#ff3399" stroke="none" />
</svg>