<?xml version="1.0" encoding="utf-8"?>
<svg version="1.1" xmlns:xlink="http://www.w3.org/1999/xlink" width="18px" height="18px" preserveAspectRatio="xMinYMid meet" viewBox="1917 879  18 16" xmlns="http://www.w3.org/2000/svg">
  <path d="M 1924 887.5  L 1956.5 887.5  A 3.5 3.5 0 0 0 1960.5 884 A 3.5 3.5 0 0 1 1964 880.5 L 2017 880.5  A 5 5 0 0 1 2022.5 885.5 L 2022.5 894  " stroke-width="1" stroke="#ff3399" fill="none" />
  <path d="M 1926 884.5  A 3 3 0 0 0 1923 887.5 A 3 3 0 0 0 1926 890.5 A 3 3 0 0 0 1929 887.5 A 3 3 0 0 0 1926 884.5 Z " fill-rule="nonzero" fill="#ff3399" stroke="none" />
</svg>