<?xml version="1.0" encoding="utf-8"?>
<svg version="1.1" xmlns:xlink="http://www.w3.org/1999/xlink" width="27px" height="25px" xmlns="http://www.w3.org/2000/svg">
  <g transform="matrix(1 0 0 1 -397 -289 )">
    <path d="M 15.2814587973274 21.0111177884615  C 15.3766703786192 20.9159655448718  15.424276169265 20.7982772435897  15.424276169265 20.6580528846154  L 15.424276169265 17.8034855769231  C 15.424276169265 17.6632612179487  15.3766703786192 17.5455729166667  15.2814587973274 17.4504206730769  C 15.1862472160356 17.3552684294872  15.0734966592428 17.3076923076923  14.9432071269488 17.3076923076923  L 12.0567928730512 17.3076923076923  C 11.9265033407572 17.3076923076923  11.8137527839644 17.3552684294872  11.7185412026726 17.4504206730769  C 11.6233296213808 17.5455729166667  11.575723830735 17.6632612179487  11.575723830735 17.8034855769231  L 11.575723830735 20.6580528846154  C 11.575723830735 20.7982772435897  11.6233296213808 20.9159655448718  11.7185412026726 21.0111177884615  C 11.8137527839644 21.1062700320513  11.9265033407572 21.1538461538462  12.0567928730512 21.1538461538462  L 14.9432071269488 21.1538461538462  C 15.0734966592428 21.1538461538462  15.1862472160356 21.1062700320513  15.2814587973274 21.0111177884615  Z M 15.2363585746102 15.2869591346154  C 15.331570155902 15.2218549679487  15.3841870824053 15.1392227564103  15.3942093541203 15.0390625  L 15.6648106904232 8.14302884615385  C 15.6648106904232 8.02283653846154  15.6146993318486 7.92768429487179  15.5144766146993 7.85757211538461  C 15.3841870824053 7.74739583333333  15.2639198218263 7.69230769230769  15.1536748329621 7.69230769230769  L 11.8463251670379 7.69230769230769  C 11.7360801781737 7.69230769230769  11.6158129175947 7.74739583333333  11.4855233853007 7.85757211538461  C 11.3853006681514 7.92768429487179  11.3351893095768 8.03285256410256  11.3351893095768 8.17307692307692  L 11.5907572383073 15.0390625  C 11.5907572383073 15.1392227564103  11.640868596882 15.2218549679487  11.7410913140312 15.2869591346154  C 11.8413140311804 15.352063301282  11.9615812917595 15.3846153846154  12.1018930957684 15.3846153846154  L 14.8830734966592 15.3846153846154  C 15.0233853006682 15.3846153846154  15.1411469933185 15.352063301282  15.2363585746102 15.2869591346154  Z M 14.4771714922049 0.270432692307693  C 14.7778396436526 0.450721153846154  15.0133630289532 0.69611378205128  15.1837416481069 1.00661057692308  L 26.7293986636971 22.1604567307692  C 27.0801781737194 22.7914663461538  27.0701559020045 23.4224759615385  26.6993318485523 24.0534855769231  C 26.5289532293987 24.3439503205128  26.2959354120267 24.5743189102564  26.0002783964365 24.7445913461538  C 25.7046213808463 24.9148637820513  25.3864142538976 25  25.0456570155902 25  L 1.9543429844098 25  C 1.61358574610245 25  1.29537861915367 24.9148637820513  0.999721603563474 24.7445913461538  C 0.704064587973274 24.5743189102564  0.471046770601336 24.3439503205128  0.300668151447661 24.0534855769231  C -0.0701559020044544 23.4224759615385  -0.0801781737193764 22.7914663461538  0.270601336302895 22.1604567307692  L 11.8162583518931 1.00661057692308  C 11.9866369710468 0.69611378205128  12.2221603563474 0.450721153846154  12.5228285077951 0.270432692307693  C 12.8234966592428 0.0901442307692318  13.1492204899777 0  13.5 0  C 13.8507795100223 0  14.1765033407572 0.0901442307692318  14.4771714922049 0.270432692307693  Z " fill-rule="nonzero" fill="#027db4" stroke="none" transform="matrix(1 0 0 1 397 289 )" />
  </g>
</svg>