<?xml version="1.0" encoding="utf-8"?>
<svg version="1.1" xmlns:xlink="http://www.w3.org/1999/xlink" width="31px" height="31px" xmlns="http://www.w3.org/2000/svg">
  <g transform="matrix(1 0 0 1 -393 -614 )">
    <path d="M 7.32225519287834 17.8456973293769  L 17.8456973293769 7.32225519287834  L 23.6593471810089 13.1359050445104  L 13.1359050445104 23.6593471810089  L 7.32225519287834 17.8456973293769  Z M 13.1359050445104 25.6646884272997  C 13.4670623145401 25.6646884272997  13.7430267062315 25.5543026706231  13.9637982195846 25.33353115727  L 25.33353115727 13.9637982195846  C 25.5665677546983 13.7307616221563  25.6830860534125 13.4547972304649  25.6830860534125 13.1359050445104  C 25.6830860534125 12.8170128585559  25.5665677546983 12.5410484668645  25.33353115727 12.3080118694362  L 18.673590504451 5.64807121661721  C 18.4528189910979 5.4272997032641  18.1768545994065 5.31691394658754  17.8456973293769 5.31691394658754  C 17.5145400593472 5.31691394658754  17.2385756676558 5.4272997032641  17.0178041543027 5.64807121661721  L 5.64807121661721 17.0178041543027  C 5.41503461918892 17.250840751731  5.29851632047478 17.5268051434224  5.29851632047478 17.8456973293769  C 5.29851632047478 18.1645895153314  5.41503461918892 18.4405539070227  5.64807121661721 18.673590504451  L 12.3080118694362 25.33353115727  C 12.5287833827893 25.5543026706231  12.8047477744807 25.6646884272997  13.1359050445104 25.6646884272997  Z M 31 11.9492581602374  C 31 12.6054401582591  30.7730959446093 13.1604352126607  30.3192878338279 13.6142433234421  L 13.6326409495549 30.3192878338279  C 13.1788328387735 30.7730959446093  12.6238377843719 31  11.9676557863501 31  C 11.3114737883284 31  10.7564787339268 30.7730959446093  10.3026706231454 30.3192878338279  L 7.98456973293769 28.0011869436202  C 8.67141444114738 27.3143422354105  9.01483679525223 26.4803165182987  9.01483679525223 25.4991097922849  C 9.01483679525223 24.517903066271  8.67141444114738 23.6838773491592  7.98456973293769 22.9970326409496  C 7.29772502472799 22.3101879327399  6.46369930761622 21.966765578635  5.48249258160237 21.966765578635  C 4.50128585558853 21.966765578635  3.66726013847676 22.3101879327399  2.98041543026706 22.9970326409496  L 0.680712166172107 20.6789317507418  C 0.226904055390702 20.2251236399604  0 19.6701285855588  0 19.0139465875371  C 0 18.3577645895153  0.226904055390702 17.8027695351137  0.680712166172107 17.3489614243323  L 17.3673590504451 0.680712166172108  C 17.8211671612265 0.2269040553907  18.3761622156281 0  19.0323442136498 0  C 19.6885262116716 0  20.2435212660732 0.2269040553907  20.6973293768546 0.680712166172108  L 22.9970326409496 2.98041543026706  C 22.3101879327399 3.66726013847675  21.966765578635 4.50128585558852  21.966765578635 5.48249258160237  C 21.966765578635 6.46369930761622  22.3101879327399 7.29772502472799  22.9970326409496 7.98456973293769  C 23.6838773491592 8.67141444114738  24.517903066271 9.01483679525223  25.4991097922849 9.01483679525223  C 26.4803165182987 9.01483679525223  27.3143422354105 8.67141444114738  28.0011869436202 7.98456973293769  L 30.3192878338279 10.2842729970326  C 30.7730959446093 10.738081107814  31 11.2930761622156  31 11.9492581602374  Z " fill-rule="nonzero" fill="#027db4" stroke="none" transform="matrix(1 0 0 1 393 614 )" />
  </g>
</svg>