<?xml version="1.0" encoding="utf-8"?>
<svg version="1.1" xmlns:xlink="http://www.w3.org/1999/xlink" width="80px" height="27px" xmlns="http://www.w3.org/2000/svg">
  <defs>
    <mask fill="white" id="clip1074">
      <path d="M 0 12  L 0 5  C 0 2.20000000000005  2.19999999999999 0  5 0  L 65 0  C 67.8 0  70 2.20000000000005  70 5  L 70 12  C 70 14.8  67.8 17  65 17  L 29 17  L 5 17  C 2.19999999999999 17  0 14.8  0 12  Z " fill-rule="evenodd" />
    </mask>
    <filter x="424px" y="527px" width="80px" height="27px" filterUnits="userSpaceOnUse" id="filter1075">
      <feOffset dx="5" dy="5" in="SourceAlpha" result="shadowOffsetInner" />
      <feGaussianBlur stdDeviation="2.5" in="shadowOffsetInner" result="shadowGaussian" />
      <feComposite in2="shadowGaussian" operator="atop" in="SourceAlpha" result="shadowComposite" />
      <feColorMatrix type="matrix" values="0 0 0 0 0  0 0 0 0 0  0 0 0 0 0  0 0 0 0.349019607843137 0  " in="shadowComposite" />
    </filter>
    <g id="widget1076">
      <path d="M 0 12  L 0 5  C 0 2.20000000000005  2.19999999999999 0  5 0  L 65 0  C 67.8 0  70 2.20000000000005  70 5  L 70 12  C 70 14.8  67.8 17  65 17  L 29 17  L 5 17  C 2.19999999999999 17  0 14.8  0 12  Z " fill-rule="nonzero" fill="#ffffff" stroke="none" transform="matrix(1 0 0 1 424 527 )" />
      <path d="M 0 12  L 0 5  C 0 2.20000000000005  2.19999999999999 0  5 0  L 65 0  C 67.8 0  70 2.20000000000005  70 5  L 70 12  C 70 14.8  67.8 17  65 17  L 29 17  L 5 17  C 2.19999999999999 17  0 14.8  0 12  Z " stroke-width="2" stroke="#797979" fill="none" transform="matrix(1 0 0 1 424 527 )" mask="url(#clip1074)" />
    </g>
  </defs>
  <g transform="matrix(1 0 0 1 -424 -527 )">
    <use xlink:href="#widget1076" filter="url(#filter1075)" />
    <use xlink:href="#widget1076" />
  </g>
</svg>