<?xml version="1.0" encoding="utf-8"?>
<svg version="1.1" xmlns:xlink="http://www.w3.org/1999/xlink" width="300px" height="170px" xmlns="http://www.w3.org/2000/svg">
  <g transform="matrix(1 0 0 1 -541 -286 )">
    <path d="M 541 286  L 841 286  L 841 456  L 541 456  L 541 286  " fill-rule="nonzero" fill="#cccccc" stroke="none" />
    <path d="M 553 298  L 829 298  L 829 444  L 553 444  L 553 298  " fill-rule="nonzero" fill="#ffffff" stroke="none" />
    <path d="M 709.75 337  C 702.61 337  697 331.39  697 324.25  C 697 317.11  702.61 311.5  709.75 311.5  C 716.89 311.5  722.5 317.11  722.5 324.25  C 722.5 331.39  716.89 337  709.75 337  " fill-rule="nonzero" fill="#cccccc" stroke="none" />
    <path d="M 558 440  L 558 364.65  L 624.75 330.4  L 718.2 393.42  L 771.6 350.95  L 825 393.42  L 825 440  L 558 440  " fill-rule="nonzero" fill="#169bd5" stroke="none" />
  </g>
</svg>