<?xml version="1.0" encoding="utf-8"?>
<svg version="1.1" xmlns:xlink="http://www.w3.org/1999/xlink" width="12px" height="12px" viewBox="939 453  12 12" xmlns="http://www.w3.org/2000/svg">
  <path d="M 945 453  C 948.36 453  951 455.64  951 459  C 951 462.36  948.36 465  945 465  C 941.64 465  939 462.36  939 459  C 939 455.64  941.64 453  945 453  Z " fill-rule="nonzero" fill="#f0f0f0" stroke="none" />
  <path d="M 945 453.5  C 948.08 453.5  950.5 455.92  950.5 459  C 950.5 462.08  948.08 464.5  945 464.5  C 941.92 464.5  939.5 462.08  939.5 459  C 939.5 455.92  941.92 453.5  945 453.5  Z " stroke-width="1" stroke="#797979" fill="none" />
  <path d="M 945 462  C 943.32 462  942 460.68  942 459  C 942 457.32  943.32 456  945 456  C 946.68 456  948 457.32  948 459  C 948 460.68  946.68 462  945 462  " fill-rule="nonzero" fill="#797979" stroke="none" />
</svg>