<?xml version="1.0" encoding="utf-8"?>
<svg version="1.1" xmlns:xlink="http://www.w3.org/1999/xlink" width="12px" height="12px" viewBox="852 1206  12 12" xmlns="http://www.w3.org/2000/svg">
  <path d="M 858 1206  C 861.36 1206  864 1208.64  864 1212  C 864 1215.36  861.36 1218  858 1218  C 854.64 1218  852 1215.36  852 1212  C 852 1208.64  854.64 1206  858 1206  Z " fill-rule="nonzero" fill="#ffffff" stroke="none" />
  <path d="M 858 1206.5  C 861.08 1206.5  863.5 1208.92  863.5 1212  C 863.5 1215.08  861.08 1217.5  858 1217.5  C 854.92 1217.5  852.5 1215.08  852.5 1212  C 852.5 1208.92  854.92 1206.5  858 1206.5  Z " stroke-width="1" stroke="#797979" fill="none" />
  <path d="M 858 1215  C 856.32 1215  855 1213.68  855 1212  C 855 1210.32  856.32 1209  858 1209  C 859.68 1209  861 1210.32  861 1212  C 861 1213.68  859.68 1215  858 1215  " fill-rule="nonzero" fill="#797979" stroke="none" />
</svg>