<?xml version="1.0" encoding="utf-8"?>
<svg version="1.1" xmlns:xlink="http://www.w3.org/1999/xlink" width="12px" height="12px" viewBox="918 1204  12 12" xmlns="http://www.w3.org/2000/svg">
  <path d="M 924 1204  C 927.36 1204  930 1206.64  930 1210  C 930 1213.36  927.36 1216  924 1216  C 920.64 1216  918 1213.36  918 1210  C 918 1206.64  920.64 1204  924 1204  Z " fill-rule="nonzero" fill="#f0f0f0" stroke="none" />
  <path d="M 924 1204.5  C 927.08 1204.5  929.5 1206.92  929.5 1210  C 929.5 1213.08  927.08 1215.5  924 1215.5  C 920.92 1215.5  918.5 1213.08  918.5 1210  C 918.5 1206.92  920.92 1204.5  924 1204.5  Z " stroke-width="1" stroke="#797979" fill="none" />
  <path d="M 924 1213  C 922.32 1213  921 1211.68  921 1210  C 921 1208.32  922.32 1207  924 1207  C 925.68 1207  927 1208.32  927 1210  C 927 1211.68  925.68 1213  924 1213  " fill-rule="nonzero" fill="#797979" stroke="none" />
</svg>