<?xml version="1.0" encoding="utf-8"?>
<svg version="1.1" xmlns:xlink="http://www.w3.org/1999/xlink" width="18px" height="18px" preserveAspectRatio="xMinYMid meet" viewBox="1329 449  18 16" xmlns="http://www.w3.org/2000/svg">
  <path d="M 1336 457.5  L 1446.5 457.5  A 3.5 3.5 0 0 0 1450.5 454 A 3.5 3.5 0 0 1 1454 450.5 L 1530 450.5  A 5 5 0 0 1 1535.5 455.5 L 1535.5 466  " stroke-width="1" stroke="#ff3399" fill="none" />
  <path d="M 1338 454.5  A 3 3 0 0 0 1335 457.5 A 3 3 0 0 0 1338 460.5 A 3 3 0 0 0 1341 457.5 A 3 3 0 0 0 1338 454.5 Z " fill-rule="nonzero" fill="#ff3399" stroke="none" />
</svg>