<?xml version="1.0" encoding="utf-8"?>
<svg version="1.1" xmlns:xlink="http://www.w3.org/1999/xlink" width="10px" height="16px" preserveAspectRatio="xMidYMin meet" viewBox="1406 1205  8 16" xmlns="http://www.w3.org/2000/svg">
  <path d="M 1294 1216.5  L 1407 1216.5  A 3 3 0 0 0 1410.5 1213.5 A 3 3 0 0 1 1413.5 1210.5 L 1488 1210.5  A 5 5 0 0 1 1493.5 1215.5 L 1493.5 1225  " stroke-width="1" stroke="#ff3399" fill="none" />
  <path d="M 1296 1213.5  A 3 3 0 0 0 1293 1216.5 A 3 3 0 0 0 1296 1219.5 A 3 3 0 0 0 1299 1216.5 A 3 3 0 0 0 1296 1213.5 Z " fill-rule="nonzero" fill="#ff3399" stroke="none" />
</svg>