<?xml version="1.0" encoding="utf-8"?>
<svg version="1.1" xmlns:xlink="http://www.w3.org/1999/xlink" width="10px" height="67px" preserveAspectRatio="xMidYMin meet" viewBox="1505 1250  8 67" xmlns="http://www.w3.org/2000/svg">
  <path d="M 1509.5 1251  L 1509.5 1307  A 5 5 0 0 0 1514 1312.5 L 1589 1312.5  A 3 3 0 0 1 1592 1309.5 A 3 3 0 0 1 1595 1312.5 L 1662 1312.5  " stroke-width="1" stroke="#ff3399" fill="none" />
  <path d="M 1509.5 1250  A 3 3 0 0 0 1506.5 1253 A 3 3 0 0 0 1509.5 1256 A 3 3 0 0 0 1512.5 1253 A 3 3 0 0 0 1509.5 1250 Z " fill-rule="nonzero" fill="#ff3399" stroke="none" />
</svg>