<?xml version="1.0" encoding="utf-8"?>
<svg version="1.1" xmlns:xlink="http://www.w3.org/1999/xlink" width="166px" height="57px" xmlns="http://www.w3.org/2000/svg">
  <g transform="matrix(1 0 0 1 -1063 -922 )">
    <path d="M 1083 978.5  L 1219 978.5  C 1224.32 978.5  1228.5 974.32  1228.5 969  L 1228.5 942  C 1228.5 938.019603773678  1226.16005511139 934.677374335159  1222.75342682486 933.246573175137  C 1221.80416230702 930.986446856925  1220.01355314308 929.195837692984  1217.75342682486 928.246573175137  C 1216.32262566484 924.83994488861  1212.98039622632 922.5  1209 922.5  L 1073 922.5  C 1067.68 922.5  1063.5 926.68  1063.5 932  L 1063.5 959  C 1063.5 962.980396226322  1065.83994488861 966.322625664841  1069.24657317514 967.753426824863  C 1070.19583769298 970.013553143075  1071.98644685692 971.804162307016  1074.24657317514 972.753426824863  C 1075.67737433516 976.16005511139  1079.01960377368 978.5  1083 978.5  Z " fill-rule="nonzero" fill="#d7d7d7" stroke="none" fill-opacity="0.533333333333333" />
    <path d="M 1083.5 978.5  L 1218.5 978.5  C 1224.1 978.5  1228.5 974.1  1228.5 968.5  L 1228.5 942.5  C 1228.5 938.382075431273  1226.12078660343 934.913027243428  1222.63475218691 933.365247813086  C 1221.64403149537 931.13386628665  1219.86613371335 929.355968504625  1217.63475218691 928.365247813086  C 1216.08697275657 924.879213396569  1212.61792456873 922.5  1208.5 922.5  L 1073.5 922.5  C 1067.9 922.5  1063.5 926.9  1063.5 932.5  L 1063.5 958.5  C 1063.5 962.617924568727  1065.87921339657 966.086972756572  1069.36524781309 967.634752186914  C 1070.35596850463 969.86613371335  1072.13386628665 971.644031495375  1074.36524781309 972.634752186914  C 1075.91302724343 976.120786603431  1079.38207543127 978.5  1083.5 978.5  Z " stroke-width="1" stroke="#797979" fill="none" />
    <path d="M 1222.67801457757 933.071985422432  C 1223.20722037943 934.263905668009  1223.5 935.592028340291  1223.5 937  L 1223.5 963.5  C 1223.5 969.1  1219.1 973.5  1213.5 973.5  L 1078 973.5  C 1074.08797165971 973.5  1070.79237588126 971.23974727326  1069.32198542243 967.928014577568  M 1217.67801457757 928.071985422432  C 1218.20722037943 929.263905668009  1218.5 930.592028340291  1218.5 932  L 1218.5 958.499  C 1218.5 964.099  1214.1 968.499  1208.5 968.499  L 1073 968.5  C 1071.59202834029 968.5  1070.26390566801 968.207220379431  1069.07198542243 967.678014577568  " stroke-width="1" stroke="#797979" fill="none" />
  </g>
</svg>