<?xml version="1.0" encoding="utf-8"?>
<svg version="1.1" xmlns:xlink="http://www.w3.org/1999/xlink" width="174px" height="55px" xmlns="http://www.w3.org/2000/svg">
  <g transform="matrix(1 0 0 1 -1289 -922 )">
    <path d="M 1309 976.5  L 1453 976.5  C 1458.32 976.5  1462.5 972.32  1462.5 967  L 1462.5 942  C 1462.5 938.019603773678  1460.16005511139 934.677374335159  1456.75342682486 933.246573175137  C 1455.80416230702 930.986446856925  1454.01355314308 929.195837692984  1451.75342682486 928.246573175137  C 1450.32262566484 924.83994488861  1446.98039622632 922.5  1443 922.5  L 1299 922.5  C 1293.68 922.5  1289.5 926.68  1289.5 932  L 1289.5 957  C 1289.5 960.980396226322  1291.83994488861 964.322625664841  1295.24657317514 965.753426824863  C 1296.19583769298 968.013553143075  1297.98644685692 969.804162307016  1300.24657317514 970.753426824863  C 1301.67737433516 974.16005511139  1305.01960377368 976.5  1309 976.5  Z " fill-rule="nonzero" fill="#d7d7d7" stroke="none" fill-opacity="0.517647058823529" />
    <path d="M 1309.5 976.5  L 1452.5 976.5  C 1458.1 976.5  1462.5 972.1  1462.5 966.5  L 1462.5 942.5  C 1462.5 938.382075431273  1460.12078660343 934.913027243428  1456.63475218691 933.365247813086  C 1455.64403149537 931.13386628665  1453.86613371335 929.355968504625  1451.63475218691 928.365247813086  C 1450.08697275657 924.879213396569  1446.61792456873 922.5  1442.5 922.5  L 1299.5 922.5  C 1293.9 922.5  1289.5 926.9  1289.5 932.5  L 1289.5 956.5  C 1289.5 960.617924568727  1291.87921339657 964.086972756572  1295.36524781309 965.634752186914  C 1296.35596850463 967.86613371335  1298.13386628665 969.644031495375  1300.36524781309 970.634752186914  C 1301.91302724343 974.120786603431  1305.38207543127 976.5  1309.5 976.5  Z " stroke-width="1" stroke="#797979" fill="none" />
    <path d="M 1456.67801457757 933.071985422432  C 1457.20722037943 934.263905668009  1457.5 935.592028340291  1457.5 937  L 1457.5 961.5  C 1457.5 967.1  1453.1 971.5  1447.5 971.5  L 1304 971.5  C 1300.08797165971 971.5  1296.79237588126 969.23974727326  1295.32198542243 965.928014577568  M 1451.67801457757 928.071985422432  C 1452.20722037943 929.263905668009  1452.5 930.592028340291  1452.5 932  L 1452.5 956.499  C 1452.5 962.099  1448.1 966.499  1442.5 966.499  L 1299 966.5  C 1297.59202834029 966.5  1296.26390566801 966.207220379431  1295.07198542243 965.678014577568  " stroke-width="1" stroke="#797979" fill="none" />
  </g>
</svg>