<?xml version="1.0" encoding="utf-8"?>
<svg version="1.1" xmlns:xlink="http://www.w3.org/1999/xlink" width="33px" height="13px" xmlns="http://www.w3.org/2000/svg">
  <defs>
    <mask fill="white" id="clip599">
      <path d="M 0 13  L 0 0  L 17.3333333333367 0  L 26.2222222222254 0  L 33 0  L 33 13  L 8.44444444444753 13  L 0 13  Z " fill-rule="evenodd" />
    </mask>
  </defs>
  <g transform="matrix(1 0 0 1 -750 -610 )">
    <path d="M 0 13  L 0 0  L 17.3333333333367 0  L 26.2222222222254 0  L 33 0  L 33 13  L 8.44444444444753 13  L 0 13  Z " fill-rule="nonzero" fill="#027db4" stroke="none" fill-opacity="0.988235294117647" transform="matrix(1 0 0 1 750 610 )" />
    <path d="M 0 13  L 0 0  L 17.3333333333367 0  L 26.2222222222254 0  L 33 0  L 33 13  L 8.44444444444753 13  L 0 13  Z " stroke-width="2" stroke="#797979" fill="none" transform="matrix(1 0 0 1 750 610 )" mask="url(#clip599)" />
  </g>
</svg>