<?xml version="1.0" encoding="utf-8"?>
<svg version="1.1" xmlns:xlink="http://www.w3.org/1999/xlink" width="21px" height="21px" xmlns="http://www.w3.org/2000/svg">
  <g transform="matrix(1 0 0 1 -724 -1318 )">
    <path d="M 3.05109371681416 13.4544007964602  C 1.95235717699115 10.6863647787611  2.49303748672566 7.63630991150443  4.2898262920354 5.44071530973452  L 4.27244740566372 6.66785569911505  L 6.74316486584071 6.71999334690266  L 6.83681934637168 1.2756206920354  L 1.3934353640708 1.18293263893805  L 1.34226414371681 3.65365009911504  L 2.54431696672566 3.67006379389381  C 0.0563224534513269 6.55896503283186  -0.718055334159292 10.6575071567257  0.753311895929203 14.3667594576106  C 2.36376063929204 18.4277320239823  6.25181437380531 20.9824619354867  10.4729518959292 20.9824619354867  C 11.1854882145133 20.9824619354867  11.9076888074336 20.9090826576106  12.629889400354 20.7594322346018  L 12.1249248870796 18.3398785797345  C 8.30642426761062 19.1354633938938  4.48965382513274 17.0818421726549  3.05113524106195 13.4543530930089  Z M 20.2455926548673 6.63206575221239  C 18.3628634867257 1.88767327433628  13.3683862831858 -0.800280265486726  8.37089362831859 0.240544778761062  L 8.87489418584071 2.66009843362832  C 12.6933948053097 1.86451361946903  16.5101652477876 3.91813484070796  17.9486838318584 7.54364657522124  C 19.0483843274336 10.3136599380531  18.5067400619469 13.3666808230088  16.7080233451327 15.5620282566372  L 16.7234713539823 14.3242596371681  L 14.2517899380531 14.2779156106195  L 14.1677923168142 19.7212995929204  L 19.611176299115 19.8052972141593  L 19.6575203256637 17.3345797539823  L 18.4641678212389 17.3191317451327  C 20.9454887946903 14.4322078513274  21.7169005646018 10.3386090902655  20.2455086176991 6.63207563893805  Z " fill-rule="nonzero" fill="#d7d7d7" stroke="none" transform="matrix(1 0 0 1 724 1318 )" />
  </g>
</svg>