<?xml version="1.0" encoding="utf-8"?>
<svg version="1.1" xmlns:xlink="http://www.w3.org/1999/xlink" width="45px" height="10px" preserveAspectRatio="xMinYMid meet" viewBox="765 -164  45 8" xmlns="http://www.w3.org/2000/svg">
  <path d="M 782 181.5  L 775 181.5  A 5 5 0 0 1 770.5 176.5 L 770.5 -155  A 5 5 0 0 1 775.5 -159.5 L 800 -159.5  A 5 5 0 0 1 805.5 -154.5 L 805.5 -147  " stroke-width="1" stroke="#ff3399" fill="none" />
  <path d="M 780 178.5  A 3 3 0 0 0 777 181.5 A 3 3 0 0 0 780 184.5 A 3 3 0 0 0 783 181.5 A 3 3 0 0 0 780 178.5 Z " fill-rule="nonzero" fill="#ff3399" stroke="none" />
</svg>