<?xml version="1.0" encoding="utf-8"?>
<svg version="1.1" xmlns:xlink="http://www.w3.org/1999/xlink" width="24px" height="30px" xmlns="http://www.w3.org/2000/svg">
  <g transform="matrix(1 0 0 1 -235 -292 )">
    <path d="M 12 28.6607142857143  C 12.1538461538462 28.6607142857143  12.2307692307692 28.5714285714286  12.2307692307692 28.3928571428571  C 12.2307692307692 28.2142857142857  12.1538461538462 28.125  12 28.125  C 11.4326923076923 28.125  10.9447115384615 27.8878348214286  10.5360576923077 27.4135044642857  C 10.1274038461538 26.9391741071429  9.92307692307692 26.3727678571429  9.92307692307692 25.7142857142857  C 9.92307692307692 25.5357142857143  9.84615384615385 25.4464285714286  9.69230769230769 25.4464285714286  C 9.53846153846154 25.4464285714286  9.46153846153846 25.5357142857143  9.46153846153846 25.7142857142857  C 9.46153846153846 26.5290178571429  9.70913461538462 27.2237723214286  10.2043269230769 27.7985491071429  C 10.6995192307692 28.3733258928571  11.2980769230769 28.6607142857143  12 28.6607142857143  Z M 22.6875 22.0982142857143  C 23.0817307692308 22.6116071428571  23.5192307692308 23.1026785714286  24 23.5714285714286  C 24 24.1517857142857  23.8173076923077 24.6540178571429  23.4519230769231 25.078125  C 23.0865384615385 25.5022321428571  22.6538461538462 25.7142857142857  22.1538461538462 25.7142857142857  L 15.6923076923077 25.7142857142857  C 15.6923076923077 26.8973214285714  15.3317307692308 27.9073660714286  14.6105769230769 28.7444196428571  C 13.8894230769231 29.5814732142857  13.0192307692308 30  12 30  C 10.9807692307692 30  10.1105769230769 29.5814732142857  9.38942307692308 28.7444196428571  C 8.66826923076923 27.9073660714286  8.30769230769231 26.8973214285714  8.30769230769231 25.7142857142857  L 1.84615384615385 25.7142857142857  C 1.34615384615385 25.7142857142857  0.913461538461539 25.5022321428571  0.548076923076923 25.078125  C 0.182692307692308 24.6540178571429  0 24.1517857142857  0 23.5714285714286  C 0.480769230769231 23.1026785714286  0.918269230769231 22.6116071428571  1.3125 22.0982142857143  C 1.70673076923077 21.5848214285714  2.11538461538462 20.91796875  2.53846153846154 20.09765625  C 2.96153846153846 19.27734375  3.31971153846154 18.3928571428571  3.61298076923077 17.4441964285714  C 3.90625 16.4955357142857  4.14663461538462 15.3459821428571  4.33413461538462 13.9955357142857  C 4.52163461538462 12.6450892857143  4.61538461538462 11.1941964285714  4.61538461538462 9.64285714285714  C 4.61538461538462 7.94642857142857  5.17788461538462 6.36997767857143  6.30288461538461 4.91350446428571  C 7.42788461538461 3.45703125  8.90384615384615 2.57254464285714  10.7307692307692 2.26004464285714  C 10.6538461538462 2.04799107142857  10.6153846153846 1.83035714285714  10.6153846153846 1.60714285714286  C 10.6153846153846 1.16071428571428  10.75 0.781249999999999  11.0192307692308 0.46875  C 11.2884615384615 0.156250000000001  11.6153846153846 0  12 0  C 12.3846153846154 0  12.7115384615385 0.156250000000001  12.9807692307692 0.46875  C 13.25 0.781249999999999  13.3846153846154 1.16071428571428  13.3846153846154 1.60714285714286  C 13.3846153846154 1.83035714285714  13.3461538461538 2.04799107142857  13.2692307692308 2.26004464285714  C 15.0961538461538 2.57254464285714  16.5721153846154 3.45703125  17.6971153846154 4.91350446428571  C 18.8221153846154 6.36997767857143  19.3846153846154 7.94642857142857  19.3846153846154 9.64285714285714  C 19.3846153846154 11.1941964285714  19.4783653846154 12.6450892857143  19.6658653846154 13.9955357142857  C 19.8533653846154 15.3459821428571  20.09375 16.4955357142857  20.3870192307692 17.4441964285714  C 20.6802884615385 18.3928571428571  21.0384615384615 19.27734375  21.4615384615385 20.09765625  C 21.8846153846154 20.91796875  22.2932692307692 21.5848214285714  22.6875 22.0982142857143  Z " fill-rule="nonzero" fill="#027db4" stroke="none" transform="matrix(1 0 0 1 235 292 )" />
  </g>
</svg>