<?xml version="1.0" encoding="utf-8"?>
<svg version="1.1" xmlns:xlink="http://www.w3.org/1999/xlink" width="184px" height="27px" xmlns="http://www.w3.org/2000/svg">
  <defs>
    <mask fill="white" id="clip115">
      <path d="M 0 23  L 0 4  C 0 1.75999999999999  1.78917127071822 0  4.06629834254144 0  L 87.0095429432472 0  L 179.933701657459 0  C 182.210828729282 0  184 1.75999999999999  184 4  L 184 23  C 184 25.24  182.210828729282 27  179.933701657459 27  L 4.06629834254144 27  C 1.78917127071822 27  0 25.24  0 23  Z " fill-rule="evenodd" />
    </mask>
  </defs>
  <g transform="matrix(1 0 0 1 -639 -1026 )">
    <path d="M 0 23  L 0 4  C 0 1.75999999999999  1.78917127071822 0  4.06629834254144 0  L 87.0095429432472 0  L 179.933701657459 0  C 182.210828729282 0  184 1.75999999999999  184 4  L 184 23  C 184 25.24  182.210828729282 27  179.933701657459 27  L 4.06629834254144 27  C 1.78917127071822 27  0 25.24  0 23  Z " fill-rule="nonzero" fill="#ffffff" stroke="none" transform="matrix(1 0 0 1 639 1026 )" />
    <path d="M 0 23  L 0 4  C 0 1.75999999999999  1.78917127071822 0  4.06629834254144 0  L 87.0095429432472 0  L 179.933701657459 0  C 182.210828729282 0  184 1.75999999999999  184 4  L 184 23  C 184 25.24  182.210828729282 27  179.933701657459 27  L 4.06629834254144 27  C 1.78917127071822 27  0 25.24  0 23  Z " stroke-width="2" stroke="#d9d9d9" fill="none" transform="matrix(1 0 0 1 639 1026 )" mask="url(#clip115)" />
  </g>
</svg>