<?xml version="1.0" encoding="utf-8"?>
<svg version="1.1" xmlns:xlink="http://www.w3.org/1999/xlink" width="29px" height="33px" xmlns="http://www.w3.org/2000/svg">
  <g transform="matrix(1 0 0 1 -486 -102 )">
    <path d="M 28.8155216284987 20.0357142857143  C 28.6556403731976 20.3180803571429  28.3973706530958 20.49609375  28.0407124681934 20.5697544642857  L 24.9599236641221 21.1774553571429  L 28.3912213740458 23.1478794642857  C 28.6740882103478 23.3074776785714  28.855491942324 23.5438058035714  28.9354325699746 23.8568638392857  C 29.0153731976251 24.169921875  28.9754028837998 24.4676339285714  28.8155216284987 24.75  C 28.6433418150975 25.0323660714286  28.4035199321459 25.2134486607143  28.0960559796438 25.2932477678571  C 27.7885920271416 25.373046875  27.4934266327396 25.3331473214286  27.2105597964377 25.1735491071429  L 23.779262086514 23.2215401785714  L 24.793893129771 26.16796875  C 24.9537743850721 26.6344866071429  24.8799830364716 27.0242745535714  24.5725190839695 27.3373325892857  C 24.2650551314673 27.650390625  23.8930237489398 27.7762276785714  23.4564249363868 27.71484375  C 23.0198261238338 27.6534598214286  22.7215860899067 27.3956473214286  22.5617048346056 26.94140625  L 20.6800254452926 21.4168526785714  L 15.6806615776081 18.5440848214286  L 15.6806615776081 24.3080357142857  L 19.5178117048346 28.6908482142857  C 19.714588634436 28.9118303571429  19.8191263782867 29.1512276785714  19.8314249363868 29.4090401785714  C 19.8437234944869 29.6668526785714  19.7760814249364 29.8909040178571  19.6284987277354 30.0811941964286  C 19.4809160305344 30.271484375  19.3056615776081 30.4249441964286  19.1027353689567 30.5415736607143  C 18.8998091603053 30.658203125  18.6722858354538 30.6919642857143  18.420165394402 30.6428571428571  C 18.1680449533503 30.59375  17.9435962680238 30.4587053571429  17.7468193384224 30.2377232142857  L 15.6806615776081 27.8805803571429  L 15.6806615776081 31.8214285714286  C 15.6806615776081 32.140625  15.5638252756573 32.4168526785714  15.3301526717557 32.6501116071429  C 15.0964800678541 32.8833705357143  14.8197625106022 33  14.5 33  C 14.1802374893978 33  13.9035199321459 32.8833705357143  13.6698473282443 32.6501116071429  C 13.4361747243427 32.4168526785714  13.3193384223919 32.140625  13.3193384223919 31.8214285714286  L 13.3193384223919 27.8805803571429  L 11.2531806615776 30.2377232142857  C 11.0564037319763 30.4587053571429  10.8319550466497 30.59375  10.579834605598 30.6428571428571  C 10.3277141645462 30.6919642857143  10.1001908396947 30.658203125  9.89726463104326 30.5415736607143  C 9.69433842239186 30.4249441964286  9.51908396946565 30.271484375  9.37150127226463 30.0811941964286  C 9.22391857506361 29.8909040178571  9.15627650551315 29.6668526785714  9.16857506361323 29.4090401785714  C 9.18087362171332 29.1512276785714  9.28541136556404 28.9118303571429  9.4821882951654 28.6908482142857  L 13.3193384223919 24.3080357142857  L 13.3193384223919 18.5440848214286  L 8.31997455470738 21.4168526785714  L 6.4382951653944 26.94140625  C 6.2784139100933 27.3956473214286  5.98017387616624 27.6534598214286  5.54357506361323 27.71484375  C 5.10697625106022 27.7762276785714  4.73494486853266 27.650390625  4.42748091603053 27.3373325892857  C 4.12001696352841 27.0242745535714  4.04622561492791 26.6344866071429  4.20610687022901 26.16796875  L 5.22073791348601 23.2215401785714  L 1.78944020356234 25.1735491071429  C 1.50657336726039 25.3331473214286  1.21140797285835 25.373046875  0.903944020356234 25.2932477678571  C 0.596480067854114 25.2134486607143  0.35665818490246 25.0323660714286  0.184478371501272 24.75  C 0.0245971162001697 24.4676339285714  -0.0153731976251059 24.169921875  0.0645674300254453 23.8568638392857  C 0.144508057675997 23.5438058035714  0.325911789652248 23.3074776785714  0.608778625954199 23.1478794642857  L 4.04007633587786 21.1774553571429  L 0.959287531806616 20.5697544642857  C 0.602629346904156 20.49609375  0.344359626802375 20.3180803571429  0.184478371501272 20.0357142857143  C 0.0245971162001697 19.7533482142857  -0.0276717557251908 19.4679129464286  0.0276717557251908 19.1794084821429  C 0.0830152671755725 18.8909040178571  0.239821882951654 18.6453683035714  0.498091603053435 18.4428013392857  C 0.756361323155216 18.240234375  1.06382527565734 18.17578125  1.4204834605598 18.2494419642857  L 7.13931297709924 19.3911830357143  L 12.1386768447837 16.5  L 7.13931297709924 13.6088169642857  L 1.4204834605598 14.7505580357143  C 1.37128922815946 14.7628348214286  1.29134860050891 14.7689732142857  1.18066157760814 14.7689732142857  C 0.848600508905852 14.7689732142857  0.578032230703987 14.6584821428571  0.368956743002544 14.4375  C 0.159881255301103 14.2165178571429  0.0430449533502969 13.9709821428571  0.0184478371501272 13.7008928571429  C -0.00614927905004232 13.4308035714286  0.0614927905004241 13.1668526785714  0.221374045801527 12.9090401785714  C 0.381255301102629 12.6512276785714  0.627226463104326 12.4916294642857  0.959287531806616 12.4302455357143  L 4.04007633587786 11.8225446428571  L 0.608778625954199 9.85212053571428  C 0.325911789652248 9.69252232142857  0.144508057675997 9.45619419642857  0.0645674300254453 9.14313616071428  C -0.0153731976251059 8.830078125  0.0245971162001697 8.53236607142857  0.184478371501272 8.25  C 0.344359626802375 7.96763392857143  0.584181509754029 7.78348214285714  0.903944020356234 7.69754464285714  C 1.22370653095844 7.61160714285714  1.51887192536047 7.65457589285714  1.78944020356234 7.82645089285714  L 5.22073791348601 9.77845982142857  L 4.20610687022901 6.83203125  C 4.04622561492791 6.36551339285714  4.12001696352841 5.97572544642857  4.42748091603053 5.66266741071428  C 4.73494486853266 5.349609375  5.10697625106022 5.22377232142857  5.54357506361323 5.28515625  C 5.98017387616624 5.34654017857143  6.2784139100933 5.60435267857143  6.4382951653944 6.05859375  L 8.31997455470738 11.5831473214286  L 13.3193384223919 14.4559151785714  L 13.3193384223919 8.69196428571428  L 9.4821882951654 4.30915178571428  C 9.28541136556404 4.08816964285714  9.18087362171332 3.84877232142857  9.16857506361323 3.59095982142857  C 9.15627650551315 3.33314732142857  9.22391857506361 3.10909598214286  9.37150127226463 2.91880580357143  C 9.51908396946565 2.728515625  9.69433842239186 2.57505580357143  9.89726463104326 2.45842633928572  C 10.1001908396947 2.341796875  10.3277141645462 2.30803571428571  10.579834605598 2.35714285714286  C 10.8319550466497 2.40625  11.0564037319763 2.54129464285714  11.2531806615776 2.76227678571428  L 13.3193384223919 5.11941964285714  L 13.3193384223919 1.17857142857143  C 13.3193384223919 0.859374999999999  13.4361747243427 0.583147321428567  13.6698473282443 0.349888392857144  C 13.9035199321459 0.116629464285717  14.1802374893978 0  14.5 0  C 14.8197625106022 0  15.0964800678541 0.116629464285717  15.3301526717557 0.349888392857144  C 15.5638252756573 0.583147321428567  15.6806615776081 0.859374999999999  15.6806615776081 1.17857142857143  L 15.6806615776081 5.11941964285714  L 17.7468193384224 2.76227678571428  C 17.9435962680238 2.54129464285714  18.1680449533503 2.40625  18.420165394402 2.35714285714286  C 18.6722858354538 2.30803571428571  18.8998091603053 2.341796875  19.1027353689567 2.45842633928572  C 19.3056615776081 2.57505580357143  19.4809160305344 2.728515625  19.6284987277354 2.91880580357143  C 19.7760814249364 3.10909598214286  19.8437234944869 3.33314732142857  19.8314249363868 3.59095982142857  C 19.8191263782867 3.84877232142857  19.714588634436 4.08816964285714  19.5178117048346 4.30915178571428  L 15.6806615776081 8.69196428571428  L 15.6806615776081 14.4559151785714  L 20.6800254452926 11.5831473214286  L 22.5617048346056 6.05859375  C 22.7215860899067 5.60435267857143  23.0198261238338 5.34654017857143  23.4564249363868 5.28515625  C 23.8930237489398 5.22377232142857  24.2650551314673 5.349609375  24.5725190839695 5.66266741071428  C 24.8799830364716 5.97572544642857  24.9537743850721 6.36551339285714  24.793893129771 6.83203125  L 23.779262086514 9.77845982142857  L 27.2105597964377 7.82645089285714  C 27.4934266327396 7.66685267857143  27.7885920271416 7.626953125  28.0960559796438 7.70675223214286  C 28.4035199321459 7.78655133928571  28.6433418150975 7.96763392857143  28.8155216284987 8.25  C 28.9754028837998 8.53236607142857  29.0153731976251 8.830078125  28.9354325699746 9.14313616071428  C 28.855491942324 9.45619419642857  28.6740882103478 9.69252232142857  28.3912213740458 9.85212053571428  L 24.9599236641221 11.8225446428571  L 28.0407124681934 12.4302455357143  C 28.3727735368957 12.4916294642857  28.6187446988974 12.6512276785714  28.7786259541985 12.9090401785714  C 28.9385072094996 13.1668526785714  29.00614927905 13.4308035714286  28.9815521628499 13.7008928571429  C 28.9569550466497 13.9709821428571  28.8401187446989 14.2165178571429  28.6310432569975 14.4375  C 28.421967769296 14.6584821428571  28.1513994910942 14.7689732142857  27.8193384223919 14.7689732142857  C 27.7086513994911 14.7689732142857  27.6287107718405 14.7628348214286  27.5795165394402 14.7505580357143  L 21.8606870229008 13.6088169642857  L 16.8613231552163 16.5  L 21.8606870229008 19.3911830357143  L 27.5795165394402 18.2494419642857  C 27.9361747243427 18.17578125  28.2436386768448 18.240234375  28.5019083969466 18.4428013392857  C 28.7601781170483 18.6453683035714  28.9169847328244 18.8909040178571  28.9723282442748 19.1794084821429  C 29.0276717557252 19.4679129464286  28.9754028837998 19.7533482142857  28.8155216284987 20.0357142857143  Z " fill-rule="nonzero" fill="#027db4" stroke="none" transform="matrix(1 0 0 1 486 102 )" />
  </g>
</svg>