<?xml version="1.0" encoding="utf-8"?>
<svg version="1.1" xmlns:xlink="http://www.w3.org/1999/xlink" width="13px" height="13px" xmlns="http://www.w3.org/2000/svg">
  <g transform="matrix(1 0 0 1 -1146 -1056 )">
    <path d="M 12.3923512747875 0  C 12.6501416430595 0  12.831208687441 0.12002840909091  12.935552407932 0.360085227272727  C 13.039896128423 0.61245265151515  12.9969310670444 0.827888257575757  12.806657223796 1.00639204545455  L 8.26770538243626 5.55823863636364  L 8.26770538243626 12.4090909090909  C 8.26770538243626 12.6676136363636  8.14801699716714 12.8491950757576  7.9086402266289 12.9538352272727  C 7.82884796978281 12.9846117424242  7.75212464589235 13  7.67847025495751 13  C 7.51274787535411 13  7.37464589235128 12.9415246212121  7.26416430594901 12.8245738636364  L 4.90722379603399 10.4609375  C 4.79060434372049 10.3439867424242  4.73229461756374 10.2054924242424  4.73229461756374 10.0454545454545  L 4.73229461756374 5.55823863636364  L 0.193342776203966 1.00639204545455  C 0.00306893295561851 0.827888257575757  -0.0398961284230406 0.61245265151515  0.0644475920679887 0.360085227272727  C 0.168791312559018 0.12002840909091  0.34985835694051 0  0.607648725212465 0  L 12.3923512747875 0  Z " fill-rule="nonzero" fill="#000000" stroke="none" transform="matrix(1 0 0 1 1146 1056 )" />
  </g>
</svg>