<?xml version="1.0" encoding="utf-8"?>
<svg version="1.1" xmlns:xlink="http://www.w3.org/1999/xlink" width="65px" height="20px" xmlns="http://www.w3.org/2000/svg">
  <defs>
    <mask fill="white" id="clip640">
      <path d="M 0 16  L 0 4  C 0 1.76000000000001  1.78749999999999 0  4.0625 0  L 17.5245098039209 0  L 27.0833333333348 0  C 27.0833333333348 0  37.7042483660145 0  43.0147058823543 0  C 48.9889705882362 0  60.9375 0  60.9375 0  C 63.2125 0  65 1.76000000000001  65 4  L 65 16  C 65 18.24  63.2125 20  60.9375 20  L 27.0833333333348 20  L 4.0625 20  C 1.78749999999999 20  0 18.24  0 16  Z " fill-rule="evenodd" />
    </mask>
  </defs>
  <g transform="matrix(1 0 0 1 -1044 -132 )">
    <path d="M 0 16  L 0 4  C 0 1.76000000000001  1.78749999999999 0  4.0625 0  L 17.5245098039209 0  L 27.0833333333348 0  C 27.0833333333348 0  37.7042483660145 0  43.0147058823543 0  C 48.9889705882362 0  60.9375 0  60.9375 0  C 63.2125 0  65 1.76000000000001  65 4  L 65 16  C 65 18.24  63.2125 20  60.9375 20  L 27.0833333333348 20  L 4.0625 20  C 1.78749999999999 20  0 18.24  0 16  Z " fill-rule="nonzero" fill="#c280ff" stroke="none" fill-opacity="0.133333333333333" transform="matrix(1 0 0 1 1044 132 )" />
    <path d="M 0 16  L 0 4  C 0 1.76000000000001  1.78749999999999 0  4.0625 0  L 17.5245098039209 0  L 27.0833333333348 0  C 27.0833333333348 0  37.7042483660145 0  43.0147058823543 0  C 48.9889705882362 0  60.9375 0  60.9375 0  C 63.2125 0  65 1.76000000000001  65 4  L 65 16  C 65 18.24  63.2125 20  60.9375 20  L 27.0833333333348 20  L 4.0625 20  C 1.78749999999999 20  0 18.24  0 16  Z " stroke-width="2" stroke="#c280ff" fill="none" stroke-opacity="0.631372549019608" transform="matrix(1 0 0 1 1044 132 )" mask="url(#clip640)" />
  </g>
</svg>