<?xml version="1.0" encoding="utf-8"?>
<svg version="1.1" xmlns:xlink="http://www.w3.org/1999/xlink" width="17px" height="15px" xmlns="http://www.w3.org/2000/svg">
  <g transform="matrix(1 0 0 1 -424 -214 )">
    <path d="M 16.6845703125 0.494791666666667  C 16.8948567708333 0.824652777777776  17 1.21527777777777  17 1.66666666666667  C 17 2.11805555555555  16.8948567708333 2.50868055555555  16.6845703125 2.83854166666667  L 9.2470703125 14.5052083333333  C 9.03678385416667 14.8350694444444  8.78776041666667 15  8.5 15  C 8.21223958333333 15  7.96321614583333 14.8350694444444  7.7529296875 14.5052083333333  L 0.3154296875 2.83854166666667  C 0.105143229166667 2.50868055555555  0 2.11805555555555  0 1.66666666666667  C 0 1.21527777777777  0.105143229166667 0.824652777777776  0.3154296875 0.494791666666667  C 0.525716145833333 0.164930555555554  0.774739583333333 0  1.0625 0  L 15.9375 0  C 16.2252604166667 0  16.4742838541667 0.164930555555554  16.6845703125 0.494791666666667  Z " fill-rule="nonzero" fill="#02a7f0" stroke="none" transform="matrix(1 0 0 1 424 214 )" />
  </g>
</svg>