<?xml version="1.0" encoding="utf-8"?>
<svg version="1.1" xmlns:xlink="http://www.w3.org/1999/xlink" width="12px" height="12px" viewBox="987 319  12 12" xmlns="http://www.w3.org/2000/svg">
  <path d="M 993 319  C 996.36 319  999 321.64  999 325  C 999 328.36  996.36 331  993 331  C 989.64 331  987 328.36  987 325  C 987 321.64  989.64 319  993 319  Z " fill-rule="nonzero" fill="#f0f0f0" stroke="none" />
  <path d="M 993 319.5  C 996.08 319.5  998.5 321.92  998.5 325  C 998.5 328.08  996.08 330.5  993 330.5  C 989.92 330.5  987.5 328.08  987.5 325  C 987.5 321.92  989.92 319.5  993 319.5  Z " stroke-width="1" stroke="#797979" fill="none" />
  <path d="M 993 328  C 991.32 328  990 326.68  990 325  C 990 323.32  991.32 322  993 322  C 994.68 322  996 323.32  996 325  C 996 326.68  994.68 328  993 328  " fill-rule="nonzero" fill="#797979" stroke="none" />
</svg>