<?xml version="1.0" encoding="utf-8"?>
<svg version="1.1" xmlns:xlink="http://www.w3.org/1999/xlink" width="42px" height="33px" xmlns="http://www.w3.org/2000/svg">
  <g transform="matrix(1 0 0 1 -925 -590 )">
    <path d="M 8.8798828125 22.130625  C 9.5224609375 21.484375  9.84375 20.7075  9.84375 19.8  C 9.84375 18.8925  9.5224609375 18.115625  8.8798828125 17.469375  C 8.2373046875 16.823125  7.46484375 16.5  6.5625 16.5  C 5.66015625 16.5  4.8876953125 16.823125  4.2451171875 17.469375  C 3.6025390625 18.115625  3.28125 18.8925  3.28125 19.8  C 3.28125 20.7075  3.6025390625 21.484375  4.2451171875 22.130625  C 4.8876953125 22.776875  5.66015625 23.1  6.5625 23.1  C 7.46484375 23.1  8.2373046875 22.776875  8.8798828125 22.130625  Z M 12.4072265625 5.836875  L 10.58203125 13.2  L 31.41796875 13.2  L 29.5927734375 5.836875  C 29.5654296875 5.726875  29.4697265625 5.6065625  29.3056640625 5.4759375  C 29.1416015625 5.3453125  28.998046875 5.28  28.875 5.28  L 13.125 5.28  C 13.001953125 5.28  12.8583984375 5.3453125  12.6943359375 5.4759375  C 12.5302734375 5.6065625  12.4345703125 5.726875  12.4072265625 5.836875  Z M 37.7548828125 22.130625  C 38.3974609375 21.484375  38.71875 20.7075  38.71875 19.8  C 38.71875 18.8925  38.3974609375 18.115625  37.7548828125 17.469375  C 37.1123046875 16.823125  36.33984375 16.5  35.4375 16.5  C 34.53515625 16.5  33.7626953125 16.823125  33.1201171875 17.469375  C 32.4775390625 18.115625  32.15625 18.8925  32.15625 19.8  C 32.15625 20.7075  32.4775390625 21.484375  33.1201171875 22.130625  C 33.7626953125 22.776875  34.53515625 23.1  35.4375 23.1  C 36.33984375 23.1  37.1123046875 22.776875  37.7548828125 22.130625  Z M 40.65673828125 14.5509375  C 41.55224609375 15.4515625  42 16.54125  42 17.82  L 42 25.74  C 42 25.9325  41.9384765625 26.090625  41.8154296875 26.214375  C 41.6923828125 26.338125  41.53515625 26.4  41.34375 26.4  L 39.375 26.4  L 39.375 29.04  C 39.375 30.14  38.9921875 31.075  38.2265625 31.845  C 37.4609375 32.615  36.53125 33  35.4375 33  C 34.34375 33  33.4140625 32.615  32.6484375 31.845  C 31.8828125 31.075  31.5 30.14  31.5 29.04  L 31.5 26  L 10.5 26  L 10.5 29.04  C 10.5 30.14  10.1171875 31.075  9.3515625 31.845  C 8.5859375 32.615  7.65625 33  6.5625 33  C 5.46875 33  4.5390625 32.615  3.7734375 31.845  C 3.0078125 31.075  2.625 30.14  2.625 29.04  L 2.625 26.4  L 0.65625 26.4  C 0.46484375 26.4  0.3076171875 26.338125  0.1845703125 26.214375  C 0.0615234375 26.090625  0 25.9325  0 25.74  L 0 17.82  C 0 16.54125  0.44775390625 15.4515625  1.34326171875 14.5509375  C 2.23876953125 13.6503125  3.322265625 13.2  4.59375 13.2  L 5.16796875 13.2  L 7.3212890625 4.558125  C 7.6357421875 3.265625  8.3466796875 2.1828125  9.4541015625 1.3096875  C 10.5615234375 0.436562499999999  11.78515625 0  13.125 0  L 28.875 0  C 30.21484375 0  31.4384765625 0.436562499999999  32.5458984375 1.3096875  C 33.6533203125 2.1828125  34.3642578125 3.265625  34.6787109375 4.558125  L 36.83203125 13.2  L 37.40625 13.2  C 38.677734375 13.2  39.76123046875 13.6503125  40.65673828125 14.5509375  Z " fill-rule="nonzero" fill="#027db4" stroke="none" fill-opacity="0.725490196078431" transform="matrix(1 0 0 1 925 590 )" />
  </g>
</svg>