<?xml version="1.0" encoding="utf-8"?>
<svg version="1.1" xmlns:xlink="http://www.w3.org/1999/xlink" width="109px" height="66px" xmlns="http://www.w3.org/2000/svg">
  <g transform="matrix(1 0 0 1 -1454 -182 )">
    <path d="M 0 57.75  L 0 8.25  C 0 3.62999999999998  1.71285714285718 0  3.89285714285714 0  C 3.89285714285714 0  49.7942946990113 0  72.7450134770884 0  C 83.5323899371065 0  105.107142857143 0  105.107142857143 0  C 107.287142857143 0  109 3.62999999999998  109 8.25  L 109 57.75  C 109 62.37  107.287142857143 66  105.107142857143 66  L 85.6722371967639 66  L 3.89285714285714 66  C 1.71285714285718 66  0 62.37  0 57.75  Z " fill-rule="nonzero" fill="#169bd5" stroke="none" transform="matrix(1 0 0 1 1454 182 )" />
  </g>
</svg>