<?xml version="1.0" encoding="utf-8"?>
<svg version="1.1" xmlns:xlink="http://www.w3.org/1999/xlink" width="10px" height="378px" preserveAspectRatio="xMidYMin meet" viewBox="1583 256  8 378" xmlns="http://www.w3.org/2000/svg">
  <path d="M 1555 629.5  L 1582 629.5  A 5 5 0 0 0 1587.5 624 L 1587.5 329  A 3 3 0 0 0 1590.5 326 A 3 3 0 0 0 1587.5 323 L 1587.5 256  " stroke-width="1" stroke="#ff3399" fill="none" />
  <path d="M 1557 626.5  A 3 3 0 0 0 1554 629.5 A 3 3 0 0 0 1557 632.5 A 3 3 0 0 0 1560 629.5 A 3 3 0 0 0 1557 626.5 Z " fill-rule="nonzero" fill="#ff3399" stroke="none" />
</svg>