<?xml version="1.0" encoding="utf-8"?>
<svg version="1.1" xmlns:xlink="http://www.w3.org/1999/xlink" width="22px" height="23px" xmlns="http://www.w3.org/2000/svg">
  <g transform="matrix(1 0 0 1 -1664 -185 )">
    <path d="M 21.4814814814815 17.1919191919192  C 21.8271604938272 17.5533108866442  22 17.9921436588103  22 18.5084175084175  C 22 19.0246913580247  21.8271604938272 19.4635241301908  21.4814814814815 19.8249158249158  L 18.962962962963 22.4579124579125  C 18.6172839506173 22.8193041526375  18.1975308641975 23  17.7037037037037 23  C 17.2098765432099 23  16.7901234567901 22.8193041526375  16.4444444444444 22.4579124579125  L 11 16.7659932659933  L 5.55555555555556 22.4579124579125  C 5.20987654320988 22.8193041526375  4.79012345679012 23  4.2962962962963 23  C 3.80246913580247 23  3.38271604938272 22.8193041526375  3.03703703703704 22.4579124579125  L 0.518518518518518 19.8249158249158  C 0.17283950617284 19.4635241301908  0 19.0246913580247  0 18.5084175084175  C 0 17.9921436588103  0.17283950617284 17.5533108866442  0.518518518518518 17.1919191919192  L 5.96296296296296 11.5  L 0.518518518518518 5.80808080808081  C 0.17283950617284 5.44668911335578  0 5.00785634118968  0 4.49158249158249  C 0 3.97530864197531  0.17283950617284 3.5364758698092  0.518518518518518 3.17508417508418  L 3.03703703703704 0.542087542087542  C 3.38271604938272 0.180695847362513  3.80246913580247 0  4.2962962962963 0  C 4.79012345679012 0  5.20987654320988 0.180695847362513  5.55555555555556 0.542087542087542  L 11 6.23400673400674  L 16.4444444444444 0.542087542087542  C 16.7901234567901 0.180695847362513  17.2098765432099 0  17.7037037037037 0  C 18.1975308641975 0  18.6172839506173 0.180695847362513  18.962962962963 0.542087542087542  L 21.4814814814815 3.17508417508418  C 21.8271604938272 3.5364758698092  22 3.97530864197531  22 4.49158249158249  C 22 5.00785634118968  21.8271604938272 5.44668911335578  21.4814814814815 5.80808080808081  L 16.037037037037 11.5  L 21.4814814814815 17.1919191919192  Z " fill-rule="nonzero" fill="#333333" stroke="none" transform="matrix(1 0 0 1 1664 185 )" />
  </g>
</svg>