<?xml version="1.0" encoding="utf-8"?>
<svg version="1.1" xmlns:xlink="http://www.w3.org/1999/xlink" width="22px" height="10px" preserveAspectRatio="xMinYMid meet" viewBox="1603 460  22 8" xmlns="http://www.w3.org/2000/svg">
  <path d="M 1604 464.5  L 1615 464.5  A 5 5 0 0 1 1620.5 469.5 L 1620.5 1085  A 5 5 0 0 1 1615.5 1090.5 L 1419 1090.5  A 5 5 0 0 0 1414.5 1095.5 L 1414.5 1101  " stroke-width="1" stroke="#ff3399" fill="none" />
  <path d="M 1606 461.5  A 3 3 0 0 0 1603 464.5 A 3 3 0 0 0 1606 467.5 A 3 3 0 0 0 1609 464.5 A 3 3 0 0 0 1606 461.5 Z " fill-rule="nonzero" fill="#ff3399" stroke="none" />
</svg>