<?xml version="1.0" encoding="utf-8"?>
<svg version="1.1" xmlns:xlink="http://www.w3.org/1999/xlink" width="12px" height="12px" viewBox="809 314  12 12" xmlns="http://www.w3.org/2000/svg">
  <path d="M 815 314  C 818.36 314  821 316.64  821 320  C 821 323.36  818.36 326  815 326  C 811.64 326  809 323.36  809 320  C 809 316.64  811.64 314  815 314  Z " fill-rule="nonzero" fill="#ffffff" stroke="none" />
  <path d="M 815 314.5  C 818.08 314.5  820.5 316.92  820.5 320  C 820.5 323.08  818.08 325.5  815 325.5  C 811.92 325.5  809.5 323.08  809.5 320  C 809.5 316.92  811.92 314.5  815 314.5  Z " stroke-width="1" stroke="#797979" fill="none" />
  <path d="M 815 323  C 813.32 323  812 321.68  812 320  C 812 318.32  813.32 317  815 317  C 816.68 317  818 318.32  818 320  C 818 321.68  816.68 323  815 323  " fill-rule="nonzero" fill="#797979" stroke="none" />
</svg>