<?xml version="1.0" encoding="utf-8"?>
<svg version="1.1" xmlns:xlink="http://www.w3.org/1999/xlink" width="12px" height="12px" viewBox="809 1227  12 12" xmlns="http://www.w3.org/2000/svg">
  <path d="M 815 1227  C 818.36 1227  821 1229.64  821 1233  C 821 1236.36  818.36 1239  815 1239  C 811.64 1239  809 1236.36  809 1233  C 809 1229.64  811.64 1227  815 1227  Z " fill-rule="nonzero" fill="#f0f0f0" stroke="none" />
  <path d="M 815 1227.5  C 818.08 1227.5  820.5 1229.92  820.5 1233  C 820.5 1236.08  818.08 1238.5  815 1238.5  C 811.92 1238.5  809.5 1236.08  809.5 1233  C 809.5 1229.92  811.92 1227.5  815 1227.5  Z " stroke-width="1" stroke="#797979" fill="none" />
  <path d="M 815 1236  C 813.32 1236  812 1234.68  812 1233  C 812 1231.32  813.32 1230  815 1230  C 816.68 1230  818 1231.32  818 1233  C 818 1234.68  816.68 1236  815 1236  " fill-rule="nonzero" fill="#797979" stroke="none" />
</svg>